<?xml version="1.0"?>
    
<!--********* Copyright (c) 2024 Pareto Softare, LLC DBA Simplemaps.com ***************************************
************* Free for Commercial Use, full terms at  https://simplemaps.com/resources/svg-license ************
************* Attribution is appreciated! https://simplemaps.com *******************************************-->

<svg baseprofile="tiny" fill="#6f9c76" height="1000" stroke="#ffffff" stroke-linecap="round" stroke-linejoin="round" stroke-width=".5" version="1.2" viewbox="0 0 1000 1000" width="1000" xmlns="http://www.w3.org/2000/svg">
 <g id="features">
  <path d="M607.1 332.7l-1.1 0.2-1.9 0.8-1 0-0.8-0.4-2.2-2-0.3-0.1-1-0.3-0.4-0.2-1.2-1-1.5-0.9-0.3-0.3-0.4-0.2-0.6-0.1-2.1 0-0.2 0-0.1-0.2-0.1-0.2-0.1-0.1-0.2-0.2-0.1-0.1-0.2 0-0.1 0.1-0.1 0-0.1 0.1-0.2-0.1-0.1-0.1-0.1-0.2-0.1 0-0.1-0.2 0-0.7 0-0.3-0.2-0.4-0.1 0-0.2 0-0.3 0.1-0.1 0-0.1 0.3-0.1 0-1.8 0-1-0.5-0.8-1-0.9-0.6-1.1 0.4-0.6 0.2-0.7-0.2-2.8-1.5-0.3-0.3-0.8-1.2-0.3-0.4-0.4-0.2-1-0.6-0.4 0-0.4-0.2-3.5-2.5-2.7-2.8-1-0.6-0.6-0.3-0.5-0.5-0.1-0.1-0.2-0.5-0.4-0.4-0.2-0.2-0.2-0.1-0.3-0.1-0.3-0.2-1.3-0.9-1.2-1.5-0.1-0.2-0.5-1.7-0.1-0.2-0.1-0.1-0.2-0.2-0.1 0-0.4-0.6-1.1-2.3-0.3-0.9-0.1-1-0.2-2.2-0.1-0.5-0.3-0.4-0.7-1.2-0.2-0.4 0-0.4 0.1-0.5 0.6-1.6 0.1-0.5 0.1-0.5-0.2-1.5 0.1-0.5 0.1-0.5 0.4-1.5 0.1-0.4 0-0.6-0.2-1.4 0.1-0.5 0.1-0.4 0.7-1.2 0.1-0.5-0.1-0.5-0.2-0.5-0.6-0.8-0.2-0.6-0.1-0.6 0-0.6 0.2-0.5 0.6-0.8 0.2-0.4 0-0.2 0.1-0.8 0.3-0.7 0-0.4 0-0.3 0-0.1 0.1 0-0.1-0.2 0-0.2 0-0.2 0.1-0.2 0.2-0.2 0.1 0 0.6-0.2 0.4 0 0.4 0 1.5 0 0.4-0.1 0.4-0.1 0.4-0.2 0.4-0.2 0.7-0.6 0.6-0.7 1.1-1.6 0.5-0.6 0.3-0.4 0.1-0.2 0.3-0.3 0.3-0.2 0.1 0 0.2-0.4 0.2-0.2 0.1-0.1 0.2-0.1 0.3-0.1 0.1 0 0.1-0.2 0.4-0.7 0.9-1.1 0.1-0.3 0.1 0 0.6-2.1 0.2-0.3 0.8-0.7 0.3-0.3 1.3-2.4 1.2-1.8 0.8-1.5 1-1.3 0.4-0.8 1.1-1.5 1.2-2.2 0.2-0.5 0.1-1.4 0.1-0.4 0.4-1.2 0-0.4 0-1.4 0.2-0.9 0-0.4-0.1-0.4-0.5-1.1-0.2-0.4-0.2-1.1 1.7-0.1 0.3 0 1.3-0.6 0.1 0 0.1 0 0.1 0 0.5 0.2 0.2 0 1.4-0.3 1.1 0.2 1.9 0.7 1.6-0.9 0.4-0.3 0.2-0.3 0.8-0.7 1.1-0.7 0.5-0.3 0.3-0.1 0.7 0.1 1.2 0.3 0.6 0.1 0.2 0 1.7-0.3 0.4-0.2 0.4-0.2 2.6-1.1 0.6 0 0.3 0 0.3 0.1 0.2 0.1 0.5 0.4 0.1 0.1 0.2 0.1 0.5 0 0.9 0 4 1.1 0.7 0.5 0.2 0.3 0 0.2 0.2 0.5 0.3 0.5 0.5 0.6 1.2 1.2 0.9 0.8 0.3 0.4 0.1 0.4 0.1 1.1 0.2 0.5 0.8 1.6 0.2 0.4 2.4 2.5 1.1 0.9 0.2 0 0.1 0.7 0.1 0.4 0.1 0.6 0 1 0 0.2-0.2 0.6-0.1 0.4-0.2 0.1-0.5-0.1-0.9 0.3-0.4 0.2-0.1 0.5 0.1 0.2 0.9 1.3 0.1 1.2-0.3 0.8-0.6 0.8-0.2 1.1 0.1 1 0 0.7-0.2 0.2-0.4 1-0.2 0.1-0.3 0.3-0.2 0.1-0.2 0.5-0.1 1.1-0.2 0.5-0.3 0.3-0.8 0.5-0.4 0.3-0.2 0.7 0.5 0.7 0.2 0.1 0.6 0.5 0.5 0.7 0.2 1-0.2 1.1-1.3 3.8-0.2 0.3-0.5 0.2-1 0.2-0.4 0.2-0.3 0.3-0.6 0.6-0.2 0.5 0.3 0.5 0.7 0.7 0.2 0.8 0 1.1 0 1.1-0.2 0.9-0.5 0.8-0.1 0.5 0.2 0.5 1.4 1.9 0.2 0.7-0.1 0.7-1.3 2-0.5 1-0.2 0.3 0 0.1 0-0.1-0.4 1.1-0.1 1.1 0.3 3 0.3 1.7 0.3 2.5 0.2 0.5 0.6 0.9 0.1 0.4-0.1 0.5-0.3 0.9-0.1 0.6 0.3 1.1 0 0.6-0.2 0.3-0.8 0.7-0.2 0-0.5 0.1-0.3 0-2.9-0.5-0.7 0.4-0.1 0.1-0.2 0.2 0 0.2 0.4 0.2 0 0.2-0.1 0.3 0 0.2-0.1 0.5-0.2 1.1 0 0.5 0.3 1.1 0.1 0.6-0.2 0.2-0.4 0.2-0.4 0.5-0.6 0.8-0.3 0.9-0.4 1.1-0.2 1.1-0.1 1 0.2 1.1-0.1 0.3-0.2 0.5-0.1 1.8 0 0.6 0.1 1 0.4 0.8 1.1 1.6 0.2 0.4 0.1 0.5 0.1 1.1 0.2 1.4 0 0.3-0.1 0.3 0 0.1z" id="ARE" name="Entre Ríos">
  </path>
  <path d="M398.9 121.6l0.1-0.1 0.4-0.2 0.3 0 0.4 0.1 0.4 0 0.5-0.1 0.4-0.2 0.2-0.3 0-0.5-0.4-0.6-0.7-0.6-0.5-0.6 0.1-0.9 0.1-0.2-0.1-0.2-0.1-0.1-0.1-0.2-0.1-0.1-0.2-0.2-0.1-0.1 0-0.1 0-0.1 0.1-0.1-0.2-0.3-0.1-0.2-0.2-0.1-0.4 0-0.2-0.1-0.5-0.3-0.2-0.2-0.1-0.2-0.4-1.2-0.1-0.4 0.2-0.5 1-2.1 0.3-0.8 0-0.3 0.1-0.4 0.2-0.2 0.2-0.1 0.4 0.6 0.3 0.1 0.1-0.4 0.2-0.7 0.8-1.8 0.4-0.2 0.3 0 0.4 0.2 0.4-0.1 0.2-0.2 0.8-1.3 0.2-0.6 0.1-0.2 0.4-0.2 0.7-0.3 1-0.5 1-0.4 1.1-0.4 1-0.5 2.6-1.1 2.6-1.2 2.6-1.2 2.6-1.1 0.2-0.1 0.4-0.2 0.4-0.1 0.2-0.1 0.8-0.3 1-0.6 0.5-0.7 0.4-1.5 0.7-2.2 0.7-2.3 0.5 0.5 0.2 0.1 0.1 0.1 0.6 0.2 0.1 0.1 0.1 0.1 0.4 0.6 0.1 0.1 0.1 0 0.3 0.1 0.1 0.1 0.5 0 0.2 0.1 0.1 0 0.2 0.1 0.1 0.2 0.6 0.7 0.9 0.9 0.1 0.1 0.1 0.4 0.1 0.2 0.1 0.1 0.1 0 0.2 0.1 0.2 0 0.1 0 0.1 0.1 0.1 0.2 0.1 0.3 0.1 0.1 0 0.1 0.7 0.7 0.4 0.6 0.2 0.2 0.3 0.2 1.7 0.7 0.1 0.1 0.8 0.8 0.7 1.1 0.5 0.4 0.6 0.4 0.8 0.4 0.8 0.2 1.3-0.1 0.7-0.4 1.1-1.5 0.1-0.1 0.4 0 0.1-0.2 0.2-0.3 0-0.7 0.2-0.4 0.1-0.3 0.2-0.2 0.1-0.3 0-0.7 0-0.9 0.2-2.3 0.1-2-0.1-1.3-0.1-0.7-0.7-1.5 0-0.3-0.5-1.3-0.1-0.2 0-0.7 0.1-0.6 0.5-2.3 0.1-0.1 0.1-0.2 0.1-0.1 0.1 0 0.2-0.1 0.2 0 0.2 0.1 1 0.5 0.5-0.1 0.6 0.5 0.4 0.2 0.2 0 0.3-0.1 0.1 0 0.1 0.1 0.1 0 3 1.8 0.6 0.6 0.1 0.2 0.1 0.2 0 0.1 0 0.3-0.1 0.8 0 0.4 0.1 1.1-0.2 0.5 0 0.2 0.2 0.4 0 0.2 0 0.1-0.4 0.3 0 0.1-0.2 0.5-0.1 0.1 0 0.2-0.1 1.6 0 0.1 0.1 0.1 0.1 0.1 0.1 0 0.1 0.1 0 0.4 0.1 0.1 0 0.1 0.1 0 0.1 0.1 0 0.1 0 0.2-0.2 0.2 0 0.2 0 0.3 0.4 0.5 0.2 0.3 0.2 0.3 0.1 0.1 0.1 0 0.2 0 0.1 0 0.1-0.1 0.1-0.1 0.1-0.1 0.1 0 0.1-0.1 0.1 0 0.2 0.1 0.2 0.1 0.2 0.1 0.8 0.8 0.2 0.3 0.1 0 1 0.5 0.4 0.4 0.1 0.8-0.1 0.9 0.2 0.5 0.7 1.2 2.1 2.8 0.4 0.8 0.2 0.4 0.1 0.1 0.2 0.1 0.7 0.4 0.2 0.1 0.2-0.1 0.2 0 0.2-0.2 0.1 0 0.1 0 0.1 0 0.1 0 0.2 0.1 0.2 0.1 0.5 0.5 0.2 0.2 0.5 0.1 0.5 0 0.1 0.1 0.3 0 0.9 0.5 0.8 0.2 0.5-0.1 0.3-0.1 0.5-0.3 0.8-0.6 0.1 0 0.1 0 0.1 0.1 0.1 0.2 0.1 0.2 0 0.1 0.1 0.1 1.7 1.4 0.7 0.5 2 0.7 0.3 0 0.1 0 0.1 0 0.1 0 0.1-0.1 0.9-2.3 0.3-0.5 0.3-0.3 0.3 0 3.9 3.6 0.2 0 0.1-0.1 0.2-0.1 0.1-0.2 0.1-0.3 0.2-0.5 0.2-0.5 0.3-0.3 1.2-1.1 1-0.2 0.1-0.1 0.1-0.1 0.3-0.5 0.1-0.1 0.1-0.1 0.2-0.1 0.2-0.1 0.4 0 0.1 0 0.1 0 0.3-0.1 0.4 0 0.1 0 0.1 0 0.2-0.1 0.1 0 0.3-0.3 0.6-0.6 1.2-1.7 0.7-1.3 0.3-1 0.1-0.3-0.5-14.6 0-0.3-0.1-0.3-0.4-0.1-0.3 0-2.6-0.1-0.2 0-0.2 0.1-0.2 0.3-0.4 0.4-0.1 0.2-0.2 1-0.1 0.2-0.5 0.4-0.5-0.4-0.2-0.2-0.1-0.1 0-0.1-0.5-0.5-0.3-0.6-0.1 0-0.4-0.4-0.3-0.3-0.7-0.3-0.8-0.2-0.2-0.1 0-0.1-0.1 0-0.2-0.3-0.2-0.1-0.1 0-0.3 0-0.4 0.1-0.9 0.1-0.1 0.1-0.2 0.1-0.4 0.4-0.1 0.1-0.1 0-0.1 0.1-0.1 0.1-0.4 0-0.6-0.1-0.3-0.1-0.2 0-0.1 0-0.1-0.1-0.1-0.3 0-0.7-0.1-0.2-0.1-0.2-0.7-1.4-0.2-0.7-0.4-0.6-0.2-0.2-0.7-0.4-0.1 0-0.5-0.1-0.1-0.1 0-0.1-0.1-0.1-0.1-0.1 0-0.1 0-0.1 0-0.3 0.1-0.3 0.3-1.4 0.3-2 0-0.6 0-0.1-0.1-0.2-0.1-0.2-0.1-0.2-0.4-0.3-0.2-0.2-0.1-0.1-0.6 0-1.7-0.1-0.3 0-0.2-0.1-0.5-0.4-0.2-0.3-0.1-0.1-0.1-0.2-0.4-1.5-0.1-0.2-0.2-0.3 0-0.1-0.3-2.1 0-0.1-0.1-0.3 0-0.2 0-0.6 0-0.3 0.1-0.4 0.4-0.6-0.1-0.2-0.7-0.7-0.2-0.1-0.3 0.1-0.2 0-0.1 0-0.1-0.2 0.2-1-0.1-0.5 0.1-0.2 0-0.2 0.5-0.9 0.1-0.4 0.1-0.3 0.6-1.4 0.2-0.3 0.1-0.1 0.3-0.6 0.1-0.1 0-0.2 0-1.3 0.1-0.7 0.2-0.9 0.1-0.3 0.2-0.4 0.3-0.4 0.1-0.3 0-0.5 3.5 0 3.9 0.9 1.5 0.8 0.8 0.2 0.2 0 0.4-0.2 0.1 0 0.2 0 0.4 0.1 0.4 0.3 0.5 0.2 0.4 0.1 0.2 0.2 0.6 0.6 0.1 0.3 0.2 0.5 0 0.3-0.1 0.3-0.3 0.4-0.2 0.5 0.3 0.4 0.4 0.3 0.3 0.2 0 0.3-0.1 0.4 0 0.2 0.1 0.2 0.4 0.2 0 0.2 0.2 0.5 0.3 0.4 1.1 1.1 0 0.4-0.2 0.2-0.2 0.2 0 0.3-0.1 0.2-0.1 0.4 0 0.3 0.1 0.3 0.1 0.1 0.2 0.1 0.2 0.2 0.5 1.2 0.3 0.1 0.4 0.3 0.3 0.5 0.1 0.6-0.2 0.5 0.3 0.3 0 1.1 0.4 0.1 0-0.2 0.5-1.8 0.2-0.4 0-1.6 0.9-3.4 0.3-0.5 1-1 0.5-0.8 1.6-4 0.1-0.2 0.5-0.2 0.1-0.3 0.7-1.6 0.3-1.3 0.2-0.3 0.1-0.1 0.1-0.1 0.2 0 0.1-0.2 0.1-0.2 0.1-0.4 0.2-0.5 0-0.1 0.1-0.1 0.3-0.1 0.5-0.2 1.9 0.2 0.5 0.2 0.8 0.7 0.2 0.1 1-0.8 0.3-0.2 0.8-0.1 6.6 0 6.5 0 3-0.1 0.9 0.1 0.3 0.1 0.1 0.2 0.1 0.9 0 0.2 0 0.2 0.1 0.2 0 0.7 0.2 0.4 0.3 0.3 0.9 0.5 0.9 0.7 0.3 0.2 0.1 0.2 0 0.2 0 0.2 0.2 0.1 0.2 0 0.2 0.1 0.2 0.1 0.1 0.2-0.2 0 0.1 0.3 0 0.2-0.2 0.2 0 0.2 0.1 0.2 0.3 0.2 0.3 0.1 0.2 0 0.5 0.1 0.4 0.3 0.5 0.7 0.2 0.1 0.8 0.3 0.2 0.1 0.2 0.3 0.3 0.4 1.5 1 0.4 0.2 0.1 0 0.1 24.4 0 12.8 0.1 6.4-15.7 20.5-6.4 8.2-10.9-0.2-0.7-0.2-4-1.3-0.8-0.1-0.4 0.5-4.4 9.8-0.1 0.4-0.1 0.2 0 0.8 0 0.2-0.2 0.4-0.7 1.5-0.1 0.1-0.1 0.8-4.4 0.1-0.3 0-1.1-0.3-0.7 0.1-1 0.4-0.2 0.1-0.4 0.4-0.4 0.3-0.1 0-0.2 0.1-0.3 0-0.1 0.1-0.3-0.1-0.4-0.1-0.7-0.3-0.4-0.3-0.4-0.1-0.2 0-0.3 0.1-4-1.6-0.3-0.2-0.1-0.3-0.2-0.3-0.1-0.6-0.3-0.6-0.1-0.1-0.1 0-0.1-0.1-0.2 0-0.2 0.1-0.6 0.2-1.1 0.6-0.1 0.1-0.1 0-0.3 0-2-0.5-0.3 0-0.5 0.1-1-0.3-0.1-0.1-0.5-0.2-0.1-0.1-0.1 0-0.2 0.1-0.1 0.1 0 0.1-0.1 0.3 0 0.3 0 0.9 0 0.5-0.2 0.4-0.1 0.5 0 0.3 0 0.8 0 0.2 0 0.1 0 0.1-0.1 0.2-0.1 0.1-0.1 0.1-0.1 0.1-0.2 0.1-0.7-0.1-6.1-1-0.8-0.5-0.6-0.6-0.4-0.7-0.3-0.2-0.4-0.1-0.3 0-0.4 0-0.3 0.2-0.2 0.1-0.2 0.3-0.4 0.7-0.6 0.4-0.2 0.2-0.2 0.4-1 2.4-0.1 0.1-0.1 0.1-0.2 0.2-0.1 0.1-0.2 0-0.1 0-0.1-0.1-0.2 0-0.1-0.2-0.7-0.6-1.3-1.6-0.4-0.5-0.8-1.9-0.5-0.6-0.2-0.2-0.3-1-1.7-2.2-1.6-2.5-0.5-0.8-0.3-1.1 0-0.9 0.1-0.6 0-0.2 0.1-0.2 0-0.1 0.2-0.2 0.2-0.1 0.1-0.1 0.3-0.2 0.4-0.4 0.1-0.1 0.1 0 0.1-0.1 1.4 0 0.8-0.1 0.9 0 0.2 0 0.1 0 0.2-0.1 1-0.8 0.3-0.3 0.1-0.2 0-0.1 0-0.2 0-0.2 0-0.2 0.5-1.8 0-0.3 0-0.1 0-0.2-0.1-0.2-0.2-0.3-0.4-0.5-0.3-0.4 0-0.1-0.1-0.3 0-0.1-0.2-1.7-0.1-0.2-0.2-0.5-0.1-0.1-0.1-0.1-0.1-0.1-0.1 0-0.7-0.1-25 0.4-14-2.8-0.3-0.1z" id="ARA" name="Salta">
  </path>
  <path d="M467.4 52.4l0 0.5-0.1 0.3-0.3 0.4-0.2 0.4-0.1 0.3-0.2 0.9-0.1 0.7 0 1.3 0 0.2-0.1 0.1-0.3 0.6-0.1 0.1-0.2 0.3-0.6 1.4-0.1 0.3-0.1 0.4-0.5 0.9 0 0.2-0.1 0.2 0.1 0.5-0.2 1 0.1 0.2 0.1 0 0.2 0 0.3-0.1 0.2 0.1 0.7 0.7 0.1 0.2-0.4 0.6-0.1 0.4 0 0.3 0 0.6 0 0.2 0.1 0.3 0 0.1 0.3 2.1 0 0.1 0.2 0.3 0.1 0.2 0.4 1.5 0.1 0.2 0.1 0.1 0.2 0.3 0.5 0.4 0.2 0.1 0.3 0 1.7 0.1 0.6 0 0.1 0.1 0.2 0.2 0.4 0.3 0.1 0.2 0.1 0.2 0.1 0.2 0 0.1 0 0.6-0.3 2-0.3 1.4-0.1 0.3 0 0.3 0 0.1 0 0.1 0.1 0.1 0.1 0.1 0 0.1 0.1 0.1 0.5 0.1 0.1 0 0.7 0.4 0.2 0.2 0.4 0.6 0.2 0.7 0.7 1.4 0.1 0.2 0.1 0.2 0 0.7 0.1 0.3 0.1 0.1 0.1 0 0.2 0 0.3 0.1 0.6 0.1 0.4 0 0.1-0.1 0.1-0.1 0.1 0 0.1-0.1 0.4-0.4 0.2-0.1 0.1-0.1 0.9-0.1 0.4-0.1 0.3 0 0.1 0 0.2 0.1 0.2 0.3 0.1 0 0 0.1 0.2 0.1 0.8 0.2 0.7 0.3 0.3 0.3 0.4 0.4 0.1 0 0.3 0.6 0.5 0.5 0 0.1 0.1 0.1 0.2 0.2 0.5 0.4 0.5-0.4 0.1-0.2 0.2-1 0.1-0.2 0.4-0.4 0.2-0.3 0.2-0.1 0.2 0 2.6 0.1 0.3 0 0.4 0.1 0.1 0.3 0 0.3 0.5 14.6-0.1 0.3-0.3 1-0.7 1.3-1.2 1.7-0.6 0.6-0.3 0.3-0.1 0-0.2 0.1-0.1 0-0.1 0-0.4 0-0.3 0.1-0.1 0-0.1 0-0.4 0-0.2 0.1-0.2 0.1-0.1 0.1-0.1 0.1-0.3 0.5-0.1 0.1-0.1 0.1-1 0.2-1.2 1.1-0.3 0.3-0.2 0.5-0.2 0.5-0.1 0.3-0.1 0.2-0.2 0.1-0.1 0.1-0.2 0-3.9-3.6-0.3 0-0.3 0.3-0.3 0.5-0.9 2.3-0.1 0.1-0.1 0-0.1 0-0.1 0-0.3 0-2-0.7-0.7-0.5-1.7-1.4-0.1-0.1 0-0.1-0.1-0.2-0.1-0.2-0.1-0.1-0.1 0-0.1 0-0.8 0.6-0.5 0.3-0.3 0.1-0.5 0.1-0.8-0.2-0.9-0.5-0.3 0-0.1-0.1-0.5 0-0.5-0.1-0.2-0.2-0.5-0.5-0.2-0.1-0.2-0.1-0.1 0-0.1 0-0.1 0-0.1 0-0.2 0.2-0.2 0-0.2 0.1-0.2-0.1-0.7-0.4-0.2-0.1-0.1-0.1-0.2-0.4-0.4-0.8-2.1-2.8-0.7-1.2-0.2-0.5 0.1-0.9-0.1-0.8-0.4-0.4-1-0.5-0.1 0-0.2-0.3-0.8-0.8-0.2-0.1-0.2-0.1-0.2-0.1-0.1 0-0.1 0.1-0.1 0-0.1 0.1-0.1 0.1-0.1 0.1-0.1 0-0.2 0-0.1 0-0.1-0.1-0.2-0.3-0.2-0.3-0.4-0.5 0-0.3 0-0.2 0.2-0.2 0-0.2 0-0.1-0.1-0.1-0.1 0 0-0.1-0.1-0.1 0-0.4-0.1-0.1-0.1 0-0.1-0.1-0.1-0.1 0-0.1 0.1-1.6 0-0.2 0.1-0.1 0.2-0.5 0-0.1 0.4-0.3 0-0.1 0-0.2-0.2-0.4 0-0.2 0.2-0.5-0.1-1.1 0-0.4 0.1-0.8 0-0.3 0-0.1-0.1-0.2-0.1-0.2-0.6-0.6-3-1.8-0.1 0-0.1-0.1-0.1 0-0.3 0.1-0.2 0-0.4-0.2-0.6-0.5-0.5 0.1-1-0.5-0.2-0.1-0.2 0-0.2 0.1-0.1 0-0.1 0.1-0.1 0.2-0.1 0.1-0.5 2.3-0.1 0.6 0 0.7 0.1 0.2 0.5 1.3 0 0.3 0.7 1.5 0.1 0.7 0.1 1.3-0.1 2-0.2 2.3 0 0.9 0 0.7-0.1 0.3-0.2 0.2-0.1 0.3-0.2 0.4 0 0.7-0.2 0.3-0.1 0.2-0.4 0-0.1 0.1-1.1 1.5-0.7 0.4-1.3 0.1-0.8-0.2-0.8-0.4-0.6-0.4-0.5-0.4-0.7-1.1-0.8-0.8-0.1-0.1-1.7-0.7-0.3-0.2-0.2-0.2-0.4-0.6-0.7-0.7 0-0.1-0.1-0.1-0.1-0.3-0.1-0.2-0.1-0.1-0.1 0-0.2 0-0.2-0.1-0.1 0-0.1-0.1-0.1-0.2-0.1-0.4-0.1-0.1-0.9-0.9-0.6-0.7-0.1-0.2-0.2-0.1-0.1 0-0.2-0.1-0.5 0-0.1-0.1-0.3-0.1-0.1 0-0.1-0.1-0.4-0.6-0.1-0.1-0.1-0.1-0.6-0.2-0.1-0.1-0.2-0.1-0.5-0.5 0.1-0.3 1.5-4.8 1.4-4.8 1.5-4.7 0.3-1.3 0.1-0.7-3.7-4 1.1-1.8 0.6-0.7 1.6-1.2 0.2-0.4 0-0.5-0.1-2 0.3-0.1 0.5 0.1 0.3-0.1 0.3-0.2 0.2-0.3 0.4-0.4 0.5-0.3 2.3-0.8 0.3-0.1 0-0.3-0.1-0.6 0-0.2 0.3-0.3 0.1-0.5 0.3-1.7 0.1-0.5 0.3-0.5 0.5-0.4 0.3-0.1 0.2 0 0.2 0.1 0.4 0 0.4 0.2 0.1-0.1 0-0.1 0.1-0.2 0.1-0.1 2.4-0.6 2.7-0.8 0.5-0.4 0.1-0.3 0.1-0.2 0.2-0.2 0.2-0.1 0.2 0 0.1 0.1 0.1-0.1 0.1-0.2 0.1-0.4 0.2-2.1 1-3.6 0.3-0.1 1.8 0.5 0.9 0.5 0.6 0.7 0.3 1.1 0.1 0.1 1.9 0.3 0.4 0.3 2.7 3.1 0.6 0.5 0.6 0.2 2.9-0.4 0.2-0.1 0.1-0.1 0.1 0 0.1-0.1 1.5 0.3 1.1 0.1 5.5-0.1z" id="ARY" name="Jujuy">
  </path>
  <path d="M526.5 98l0-12.8-0.1-24.4 0.8 0.1 0.2 0 0.1 0.1 0.1 0.1 0 0.2 0 0.2 0.1 0.2 0.1 0 0.1 0 0.1 0 0.5 0.6 0.2 0.4-0.2 0.3-0.2 0.4 0 0.3 0.2 0.3 0.5 0.2 0.3 0.1 0.1-0.1 0.1 0.1 0.1 0.2-0.1 0.5 0 0.3 0.4 0.2-0.3 0.6 0.1 0.1 0.3 0.1 0.1 0.2 0.1 0.2 0.1 0.3 0.6 0.6 0.1 0.2 0 0.2 0.1 0.1 0.1 0.1 0.1 0.1 0.1 0.1 0.2 0.2 0.1 0 0.1 0.3 0.2 0.2 0.4 0.5 0.4 0.4 0.3 0.9 0.3 0.3 0 0.2-0.1 0.5 0.1 0.2 0 0.1 0.3 0.4 0.7 0.8 2.3 1.4 0.2 0.2 0.4 0.7 0.3 0.2 0.5 0.3 0.2 0.2 0.2 0.2 0.1 0.2 0.1 0.3 0 0.4 0.1 0.4 0.2 0.2 0.3 0.1 0.3 0.2 0.3 0.4 0.2 0.1 0.3 0.1 1 0 0.3 0.1 1 1.2 0.2 0 0.2 0.1 0.4 0-0.1 0.2-0.1 0.2 0 0.3 0.3 0.2 0.2 0.5 0.2 0.1 0.5 0.1 0.3 0 0.4 0.2 0.3 0.2 0.2 0.2 0.2 0.2 0.3 0.1 0.5 0 1.4 0.6 0.1 0.3 0.1 0.3 0.3 0.3 0.4 0.2 0.2 0 0.4 0.5 0.2 0.1 0.1 0 0.4 0 0.2 0 0.2 0.2 0.3 0.3 0.3 0.3 0.4 0.1 0.2 0.2 0.1 0.5-0.1 0.5-0.2 0.4 0.2 0.2 0.4 0.6 0.5 0.3 0.4 0.4 0.2 0.5 0.1 0.3 0.1 0.1 0.3 0.5 0.2 0.2 0.6 0.4 0.8-0.2 0.8 0.4 0.7 0.6 0.6 0.3 0.4 0.1 0.6-0.1 1.2 0 0.2 0.1 0.4 0.4 0.2 0 1 0 0.2 0 0.3 0.1 0.3 0.2 0.2 0 0 0.1 0.4 0.7 0.1 0.1 0.7 0 0.4 0.2 0.7 0.5 1.3 0.3 0.7-0.1 0.2 0.1 0.2 0.1 0.4 0.4 0.2 0.1 0.2 0 0.7 0 1.6 0.2 1.6 0 0.4-0.1 1-0.4 0.4 0 0.4 0.1 7.5 4.9 0.8 0.8 0.3 0.5 0.2 0.2 0.2 0.1 0.5 0 0.4 0.2 0.3 0.1 0.2 0.1 0.2 0.3 0.3 0.2 0.4 0.2 0.5 0.2 0.1 0.2 0.1 0.1 0 0.2 0.1 0.2 0.5 0.2 0.8 0.7 0.2 0.3 0.4 0.8 0.4 0.4 0.6 0.2 0.3 0.4 0.2 0 0.3 0.1 0.2 0.1 0.1 0.2 0.2 0.1 0.9 0.3 0.5 0.4 0.5 0.2 0.8 0.5 0.4 0.2 0.4 0 0.1 0 0.2 0.1 0.5 0.4 0.2 0.2 0.6 0.2 4 3 0.4 0.1 1.1 0 0.3 0.1 0.1 0.1 0.2 0.1 0.1 0.1 0.1 0.2 0.1 0.1 4.5 0.9 0.5 0.2 0.3 0.3 0.5 0.7 1.3 1.5 0.1 0.2 0.1 0.2 0.1 0.1 0.2 0.1 0.3-0.1 0.2-0.1 0.3-0.2 0.6-0.6 0.3-0.3 0.4 0 1.9 1.3 0.2 0.4 0.2 0 1.5 0.7 0.2 0 0.4-0.1 0.2 0.1 0.2 0.2 0.1 0.2 0.1 0.3 0.3 0.1 1.6 0 0.4 0.1 0.3 0.3 0.9 1.1 0.3 0.2 0.7 0.3 0.2 0.3 0.7 1.5 0.4 0.6 0.6 0.4 0.7 1.6 0 0.3 0.9 0.7 0.4 0.3 0.2 0.3 0.2 0.3 0 0.4-0.3 2-0.1 0.4-0.2 0.3-0.3 0-0.2 0.2-0.1 0.5-0.1 0.2-0.4 0-0.6-0.1 0 0.1-0.1 0.5-0.1 0.2-0.2 0.1-0.2 0.1-0.2-0.1-0.3 0.1-0.4 0.1-0.3 0.3-0.4 0.7 0.1 0.1 0.2 0.2 0.2 0.1 0.2 0-0.2 0.3-0.4 0.4-0.4 0.3-0.3 0.1-0.3 0.2 0 0.5 0.3 0.7-0.2 0.4-0.1 0.1-0.3 0.2-0.4 0.2-0.5 0.2 0 0.1 0 0.2 0.5 0.2 0 0.2-0.1 0.3-0.1 0.2-0.7 0.6-0.2 0.3 1 0.3-0.1 0.3-0.2 0.4-2.4 1.8-0.7 0.4-1.3 0.5-0.3 0.2-0.2 0.8-0.1 0.4-0.2 0.3-0.1-0.2-0.1-0.1-0.2-0.1-0.2-0.1 0.1 0.4 0.2 0.3 0.3 0.1 0.3 0.2 0 0.4-0.3 0.2-0.5 0.2-0.3 0.1-0.2 0.2 0 0.3 0.1 0.8 0 0.4-0.1 0.3-0.7 1.2-0.2 0.4 0.1 0.3 0.5 0.5-0.1 0.2-0.3 0.2 0 0.2-0.1 0.4-0.1 0.4-0.1 0.3 0.1 0.4 0.1 0.1 0.5 0.4 0.1 0.2 0.2 0.3 0.1 0.1-0.1 0.2-0.4 0.2 0 0.1 0 0.3 0.1 0.2 0.1 0.2 0 0.2-0.1 0.1-0.2 0-0.7-0.1-0.1-0.1-0.1 0.3-0.1 0.4-0.1 1.9-0.1 0.1-0.1 0-0.3 0-0.3 0.1 0 0.2 0.2 0.3 0.1 0.2-0.3 0.3-0.4-0.1-0.4-0.1-0.3 0.1-0.3 0.5 0.3 0.4 0.4 0.2 0.1 0.4-0.3 0.3-0.4 0-0.1 0-0.4-0.2-0.1-0.1 0-0.1 0-0.1 0.1-0.1 0-0.1-0.1-0.1-0.1-0.1-0.1-0.1-0.2 0.1-0.3 0.1-0.1 0-0.2 0-0.2-0.1-0.4-0.3-0.1-0.1-0.1-0.1-0.2-0.5 0-0.1-0.2-0.2-1-0.8-0.3-0.3 0-0.2-0.1-0.1 0-0.3-0.1-0.1-0.1-0.2-0.1-0.1-0.1-0.1-0.1-0.1-1.6-1-0.4-0.5-0.3-0.4-0.1-0.1-0.1-0.1-0.2-0.1-0.2 0-0.2 0-0.2 0-0.1-0.1-0.2-0.1-0.5-0.7-0.3-0.3-0.1-0.1-0.1-0.1-0.8-0.4-0.3-0.1-0.2-0.2-0.6-0.6-0.2-0.4-0.2-0.3-0.5-0.6-0.4-0.4-0.6-0.4-0.9-0.3-0.7-0.3-0.7-0.3-0.2-0.1-0.6-0.6-0.2-0.2-0.1-0.3-0.1 0-0.2-0.1-0.2 0.1-0.1 0-0.1 0.1-0.1 0.1-0.1 0 0 0.1-0.2 0.2-0.2 0.1-0.2 0.1-0.3 0.1-0.4 0.2-0.2 0.1-0.2 0.1-0.2 0-0.2-0.1-0.5-0.2-0.2 0-0.1 0-0.1 0.1-0.1 0-0.2 0-0.1-0.2-0.2-0.2-0.4-0.5-0.1-0.3 0-0.1 0.1-0.1 0-0.2-0.1-0.1-0.3-0.4-0.1-0.2-0.1-0.2 0-0.6 0-0.3 0-0.1-0.2-0.1-0.2-0.2-0.4-0.2-0.3-0.1-0.2 0-0.4 0-0.1 0-0.1 0-0.5-0.2-0.1 0-0.2 0-0.3 0.1-0.2 0-0.2-0.1-0.4-0.3-0.5-0.2-0.1 0-0.1 0-0.2 0.1-0.2 0-0.1 0-0.1 0-0.1-0.1-0.1-0.2 0-0.2 0-0.3 0-0.6-0.1-1.5-0.4 0-0.1 0-0.1-0.1-1.4-2-0.9-0.8-0.3-0.2-0.4-0.2-0.2-0.1 0-0.1-0.1-0.2 0-0.1 0-0.3 0-0.1 0-0.1-0.1-0.2-0.2-0.1-0.7-0.4-0.6-0.3-0.1-0.1-0.1-0.1-0.2-0.4-0.1-0.1-0.1-0.1-0.3-0.1-0.6-0.1-0.1-0.1-0.1-0.1-0.1-0.1-0.1-0.2 0-0.2-0.1-0.2-0.1 0-0.2-0.1-0.3-0.1-0.2 0-0.2-0.1-0.2-0.2-0.2-0.1-0.2 0-0.2 0-0.1-0.1-0.1 0-0.2-0.2-0.2 0-0.2 0.2-0.1 0-0.1 0-0.2-0.1-0.1-0.2-0.1-0.2 0-0.1 0-0.2 0-0.1 0-0.1-0.1-0.2-0.4-0.5-0.1-0.2-0.1-0.1-0.1-0.3 0-0.1 0-0.1-0.2-0.3 0-0.2 0-0.1 0.1 0 0.1-0.1 0-0.1 0-0.1 0-0.1-0.1-0.2-0.1-0.2 0-0.1-0.1 0-0.3-0.1-0.5-0.1-0.2 0-0.1-0.1 0-0.3-0.1-0.1 0-0.2 0-0.1-0.1-0.2-0.7-0.3-0.1-0.1-0.1-0.2 0-0.1 0.2-0.1 0-0.1-0.1-0.2-0.2-0.4-0.1-0.3-0.1-0.1-0.2-0.1-0.5-0.2-0.2-0.3-0.4-0.3-0.2-0.3-0.3-0.5-0.3-0.3-0.2-0.3-0.2-0.6-0.3-0.4 0-0.1-0.2-0.2-0.3-0.1-0.2 0-0.2 0-0.2 0.1-0.1 0-0.2-0.1-0.4-0.3-0.2-0.1-0.1-0.1-0.8-0.2-0.1-0.1-0.2-0.1-0.2-0.3-0.2-0.1-0.6-0.4-0.2-0.1-1.2-0.8-0.6-0.2-0.2-0.1-0.7-0.7-0.5-0.5-0.1 0-0.3-0.1-0.2-0.2-2.9-2.5-0.1 0-0.1 0-0.1 0-0.2 0.1-0.1 0.1-0.1-0.1-0.2-0.1-0.4-0.4-0.1-0.2 0-0.1-0.1-0.3 0-0.2 0.1-0.1 0.1-0.2 0-0.1-0.1-0.2-0.8-1.2-0.1-0.3 0-0.2 0-0.3 0-0.1-0.1-0.1-0.3-0.1-0.1-0.1-0.6-0.8-0.1-0.2-0.1-0.1-0.3-0.1-0.8-0.3-0.3 0-1.1 0-0.2-0.1-0.4-0.1-0.7-0.3-0.1 0-0.2 0-0.2 0.1-0.1 0-0.5-0.1-0.1-0.1-1-0.9-0.3-0.4-0.8-0.7-0.2-0.3-0.1-0.1 0-0.2 0-0.1-0.1-0.2 0-0.1-0.1 0-0.1-0.1-0.2 0-0.1 0-0.2 0.1-0.2-0.1-0.2 0-0.3-0.1-0.1 0-0.1 0.1 0 0.1-0.2-0.1-0.1-0.2-0.7-1.4-0.1-0.2-0.1-0.2-0.1-0.2-0.2-0.1-0.5-0.3-0.7-0.6-0.1-0.1-0.2 0-0.3 0-0.4-0.1-0.8-0.2-0.5 0-0.1-0.1-0.2-0.1-0.7-0.6-1-0.6-0.1-0.2-0.1-0.1-0.1-0.2 0-0.1-0.1 0-0.1-0.2-0.3-0.2-0.1-0.1-0.2-0.1-0.2 0-1.6-0.3-4.4-1.7z" id="ARP" name="Formosa">
  </path>
  <path d="M665.6 190.8l-0.1-0.1-1.6-1.1-0.7-0.6-0.3-0.4-0.1-0.2-0.1-0.3-0.1-0.2 0-0.5-0.1-0.3-0.2-0.3-0.2-0.3-0.7-0.7-0.2-0.3-0.1-0.3-0.1-1.1-0.1-1.7-0.2-0.8-0.3-0.8-3-6.2 0-0.3 0-0.5 0-0.3 0.1-0.3 0.3-0.7 0-0.1 0.1-0.2 0.6-0.4 0.1 0 0.5-0.1 0.5 0 0.4 0.2 0.3 0.4 0.3 0.9 0.2 0.2 0.2 0.2 0.6 0.1 1.2 0.7 0.8-0.6 0.8-0.9 0.5-0.4 0.6-0.1 0.4-0.3 0.3-0.4 0.2-0.5 0.1-0.3-0.1-0.2 0-0.2 0.3-0.5 0-0.2 0-0.3-0.1-0.2-0.5-1 0-0.3 0.5-0.2 0.4-0.2 0.1-0.4 0.1-0.5 0.2-0.3 0.4-0.1 0.6 0.1 0.5-0.1 0.2-0.3 0.1-1.1 0.1-0.5 0.3-0.4 0.3-0.4 0.4-0.2 0.4-0.2 1-0.1 1-0.6 0.5 0 0.4 0.2 0.4 0.2 0.3 0.1 0.8 0.1 0.5-0.1 0.3-0.3 0.1-0.5-0.3-0.9 0.2-0.4 1.3-1.4 0.4-0.1 1-0.1 0.4-0.2 0.3-0.3 0.2-0.4 0.1-0.4 0.3-1 0.2-0.5 0.4-0.3 0.5-0.2 0.9 0 0.2 0.1 0 0.2 0.2 0 0.2-0.1 0.3-0.4 0.1-0.5 0.1-0.6 0-0.5 0-0.4-0.1-0.3-0.1-0.4 0.2-0.4 0.3-0.4 0.6-0.4 0.7-0.8 0.1-0.3 0.1-0.4 0.2-1.4 0.1-0.1 0-0.1 0.3-0.8 0-1 0-0.5 0-0.1 0.2-0.3 0.2-0.4 0.2-0.2-0.1-0.3-0.4-0.5-0.1-0.3 0.5-1.5 0-0.5-0.2-0.8-0.1-0.7-0.1-0.2 0-0.2 0.1-0.3 0.2-0.1 0.5 0 0.1-0.1 0.2-0.3 0-0.4-0.2-1.1 0.2-0.3 0.2-0.4 0.2-0.4 0-0.5-0.1-0.3-0.5-0.6-0.1-0.3-0.1-0.5-0.3-1.2 0-0.6 0.2-0.2 0.7 0.1 0.3-0.2-0.1-0.5-0.3-0.8 0.1-0.4 0.8-0.1 0.3 0.1 0.1 0.3 0 0.4 0.2 0.2 0.4-0.1 0.4 0.1 0.4 0.3 0.3 0.4 0 0.5 0 0.2 0.1 0.2 0.1 0.2 0.2-0.1 0.1-0.2-0.1-0.5 0-0.2 0.2-0.2 0.3-0.3 0.2-0.1 0-0.2 0-0.3 0-0.2 0.2-0.2 0.2-0.1 0.2 0 0.3 0.2 0.2-0.1 0.4-0.5 0.2-0.1 0.5-0.1 0.3 0.1 0.2 0.3 0.2 0.5 0.2 0.2 0.1-0.1 0.1-0.4 0.2 0 0.1 0 0.4 0.1 0.5 0-0.1-0.4-0.5-0.8 0.2 0 0.2 0 0.4 0.1 0.3 0 0.2-0.1 0.5-0.7 0.2-0.1 0.1 0 0.1 0 0.1 0.1-0.1 0.5-0.2 0.3-0.1 0.4 0 0.5 0.2 0.2 0.1 0.2 0.2 0.2 0.2 0 0.1-0.2 0-0.2 0-0.3-0.1-0.2 0.2-0.2 0.2 0.1 0.3 0.4 0.3-0.1 0.1-0.1 0.2 0 0.2 0 0.4 0.2 0.3 0.4 0.1 0.4 0.1 0.5 0.2 0.5 0.4 0 0.8-0.5 0.2 0.2 0.2 0.5 0.3 0.9-0.1 0.2-0.1 0.1 0 0.2 0 0.3 0.1 0.3 0.4 0.4 0.2 0.2 0.2 0.4 0.1 0.4-0.1 1.4 0.2 1.2 0 0.3-0.1 0.2 0 0.2 0 0.3 0.2 0.2 0.7 0.6 0.6 0.7 0.2 0.7 0.1 0.7 0.3 0.8 1 1.5 0.4 0.7 0.1 0.9-0.2 0.8-0.9 1.2-0.2 0.7 0.2 2.2 0 0.7-0.3 0.2-0.1 0.2-0.1 0.2 0.1 0.2 0 0.2 0.1 0.2 0-0.1 0 0.4-0.3 0.8 0 0.4 0.1 0.9 0 0.4-0.1 0.5-0.2 0.1-0.2 0-0.2 0.1 0 0.2 0.1 0.3 0.1 0.2 0.2 0 0.1 0.1 0 0.2-0.1 0.4 0 0.2 0.1 0 0.2 0.1 0.1 0 0.2 0.9 0.3 1.3-0.1 0.8-0.2 0.8-0.9 1.9-0.1 0.2-0.2 0.1-0.3 0-0.1 0.1-0.1 0.3 0.1 0.6-0.1 0.4-0.1 0.1-0.3 0.2-0.1 0.1 0 0.2 0.2 0.2 0 0.2-0.2 0.4-0.2 0.2-0.2-0.2-0.2-0.4-0.2-0.3-0.3-0.1-0.1 0.1-0.2 0.8-0.2 0.2-0.4-0.1-0.2-0.2-0.3-0.2-0.3 0.2 0 0.3 0.1 0.3 0 0.2-0.4 0.1-0.2 0-0.1-0.1-0.1-0.1-0.1 0-0.1 0.2-0.2 0.4-1.5 1.7-0.8 0.1-0.6-0.2 0.1-0.5-0.2-0.2-0.3-0.2-0.2 0.4-0.6 1.6-0.1 0.2-0.1 0.2-0.1 0.2 0 0.4 0 0.2-0.2 0.1-0.2 0-0.2 0.1-0.1 0.2-0.1 0.2-0.1 0.3-0.1 0.2-0.2 0-0.4 0.1-0.3-0.3-0.2-0.3-0.3-0.2 0 0.7 0 0.2-0.1 0.3-0.2 0.1-0.2 0.1-0.1-0.2-0.1-0.6-0.2-0.3-0.3 0-0.8 0-0.4 0.1 0 0.2 0.3 0.6 0 0.3-0.4 0.2-1.4 0.4-0.2 0-0.2-0.1-0.1-0.1-0.2-0.4 0-0.1-0.2 0-0.1-0.1-0.1 0-0.2 0.2-0.1 0.2-0.1 0.2-0.2 0.4-0.2 0.5-0.3 0.2-0.2 0-0.1-0.4-0.1-0.1-0.1 0-0.2 0.1 0 0.3 0 0.3 0 0.2-0.1 0.1-0.2 0.1-0.2 0.1-0.5-0.1-0.2 0-0.8 0.3-0.2 0 0-0.1-0.1-0.1-0.1-0.1 0-0.1 0.1-0.2 0-0.1-0.1-0.2-0.3 0-0.3 0.3-0.1 0.2-0.2 0.4 0 0.6-0.2 0.5-0.4 0.2-0.5 0-0.2 0.1 0 0.9-0.1 1-0.1 0.5-0.1 0.3-0.4 0.1-1.1 1-0.5 0.1-0.4-0.2-0.3-0.2-0.5 0-0.3 0.1 0.2 0.4 0.6 0.6 0.3 0.5 0 0.2-0.4 0-0.4-0.2-0.2 0-0.5 0.1-0.2 0 0 0.2-0.2 0.6-0.4-0.1-0.5-0.4-0.3-0.1-0.4 0.2-0.3 0.3-0.3 0.4-0.7 0.6-0.2 0.1-0.2 0-0.5-0.2-0.2 0-0.4 0.3 0 0.5-0.1 0.4-0.5 0.1-0.2 0-0.1 0.1-0.1 0.1 0 0.2 0 0.5-0.1 0.2-0.1 0.2-0.9 1.1-0.1 0.2-0.5 0.1-0.3 0-0.1 0-0.1-0.2-0.1 0-0.3 0.1-0.1 0.1-0.2 0.5-0.1 0.1-0.3 0.2-0.1 0.1-0.1 0.2 0 0.2-0.1 0.1-0.2 0.1-0.3-0.1 0-0.2 0-0.2-0.1-0.1-0.4-0.1-0.3 0.3-0.1 0.3z" id="ARN" name="Misiones">
  </path>
  <path d="M504.5 133.1l6.4-8.2 15.7-20.5-0.1-6.4 4.4 1.7 1.6 0.3 0.2 0 0.2 0.1 0.1 0.1 0.3 0.2 0.1 0.2 0.1 0 0 0.1 0.1 0.2 0.1 0.1 0.1 0.2 1 0.6 0.7 0.6 0.2 0.1 0.1 0.1 0.5 0 0.8 0.2 0.4 0.1 0.3 0 0.2 0 0.1 0.1 0.7 0.6 0.5 0.3 0.2 0.1 0.1 0.2 0.1 0.2 0.1 0.2 0.7 1.4 0.1 0.2 0.2 0.1 0-0.1 0.1-0.1 0.1 0 0.3 0.1 0.2 0 0.2 0.1 0.2-0.1 0.1 0 0.2 0 0.1 0.1 0.1 0 0 0.1 0.1 0.2 0 0.1 0 0.2 0.1 0.1 0.2 0.3 0.8 0.7 0.3 0.4 1 0.9 0.1 0.1 0.5 0.1 0.1 0 0.2-0.1 0.2 0 0.1 0 0.7 0.3 0.4 0.1 0.2 0.1 1.1 0 0.3 0 0.8 0.3 0.3 0.1 0.1 0.1 0.1 0.2 0.6 0.8 0.1 0.1 0.3 0.1 0.1 0.1 0 0.1 0 0.3 0 0.2 0.1 0.3 0.8 1.2 0.1 0.2 0 0.1-0.1 0.2-0.1 0.1 0 0.2 0.1 0.3 0 0.1 0.1 0.2 0.4 0.4 0.2 0.1 0.1 0.1 0.1-0.1 0.2-0.1 0.1 0 0.1 0 0.1 0 2.9 2.5 0.2 0.2 0.3 0.1 0.1 0 0.5 0.5 0.7 0.7 0.2 0.1 0.6 0.2 1.2 0.8 0.2 0.1 0.6 0.4 0.2 0.1 0.2 0.3 0.2 0.1 0.1 0.1 0.8 0.2 0.1 0.1 0.2 0.1 0.4 0.3 0.2 0.1 0.1 0 0.2-0.1 0.2 0 0.2 0 0.3 0.1 0.2 0.2 0 0.1 0.3 0.4 0.2 0.6 0.2 0.3 0.3 0.3 0.3 0.5 0.2 0.3 0.4 0.3 0.2 0.3 0.5 0.2 0.2 0.1 0.1 0.1 0.1 0.3 0.2 0.4 0.1 0.2 0 0.1-0.2 0.1 0 0.1 0.1 0.2 0.1 0.1 0.7 0.3 0.1 0.2 0 0.1 0 0.2 0.1 0.1 0 0.3 0.1 0.1 0.2 0 0.5 0.1 0.3 0.1 0.1 0 0 0.1 0.1 0.2 0.1 0.2 0 0.1 0 0.1 0 0.1-0.1 0.1-0.1 0 0 0.1 0 0.2 0.2 0.3 0 0.1 0 0.1 0.1 0.3 0.1 0.1 0.1 0.2 0.4 0.5 0.1 0.2 0 0.1 0 0.1 0 0.2 0 0.1 0.1 0.2 0.1 0.2 0.2 0.1 0.1 0 0.1 0 0.2-0.2 0.2 0 0.2 0.2 0.1 0 0.1 0.1 0.2 0 0.2 0 0.2 0.1 0.2 0.2 0.2 0.1 0.2 0 0.3 0.1 0.2 0.1 0.1 0 0.1 0.2 0 0.2 0.1 0.2 0.1 0.1 0.1 0.1 0.1 0.1 0.6 0.1 0.3 0.1 0.1 0.1 0.1 0.1 0.2 0.4 0.1 0.1 0.1 0.1 0.6 0.3 0.7 0.4 0.2 0.1 0.1 0.2 0 0.1 0 0.1 0 0.3 0 0.1 0.1 0.2 0 0.1 0.2 0.1 0.4 0.2 0.3 0.2 0.9 0.8 1.4 2 0.1 0.1 0.1 0 0.4 0 0.1 1.5 0 0.6 0 0.3 0 0.2 0.1 0.2 0.1 0.1 0.1 0 0.1 0 0.2 0 0.2-0.1 0.1 0 0.1 0 0.5 0.2 0.4 0.3 0.2 0.1 0.2 0 0.3-0.1 0.2 0 0.1 0 0.5 0.2 0.1 0 0.1 0 0.4 0 0.2 0 0.3 0.1 0.4 0.2 0.2 0.2 0.2 0.1 0 0.1 0 0.3 0 0.6 0.1 0.2 0.1 0.2 0.3 0.4 0.1 0.1 0 0.2-0.1 0.1 0 0.1 0.1 0.3 0.4 0.5 0.2 0.2 0.1 0.2 0.2 0 0.1 0 0.1-0.1 0.1 0 0.2 0 0.5 0.2 0.2 0.1 0.2 0 0.2-0.1 0.2-0.1 0.4-0.2 0.3-0.1 0.2-0.1 0.2-0.1 0.2-0.2 0-0.1 0.1 0 0.1-0.1 0.1-0.1 0.1 0 0.2-0.1 0.2 0.1 0.1 0 0.1 0.3 0.2 0.2 0.6 0.6 0.2 0.1 0.7 0.3 0.7 0.3 0.9 0.3 0.6 0.4 0.4 0.4 0.5 0.6 0.2 0.3 0.2 0.4 0.6 0.6 0.2 0.2 0.3 0.1 0.8 0.4 0.1 0.1 0.1 0.1 0.3 0.3 0.5 0.7 0.2 0.1 0.1 0.1 0.2 0 0.2 0 0.2 0 0.2 0.1 0.1 0.1 0.1 0.1 0.3 0.4 0.4 0.5 1.6 1 0.1 0.1 0.1 0.1 0.1 0.1 0.1 0.2 0.1 0.1 0 0.3 0.1 0.1 0 0.2 0.3 0.3 1 0.8 0.2 0.2 0 0.1 0.2 0.5 0.1 0.1 0.1 0.1 0.4 0.3 0.2 0.1 0.2 0 0.1 0 0.3-0.1 0.2-0.1 0.1 0.1 0.1 0.1 0.1 0.1 0 0.1-0.1 0.1 0 0.1 0 0.1 0.1 0.1 0.4 0.2 0.1 0-0.5 0.1-0.2 0.2-0.2 0.3-0.5 0.2-0.9 0.2-0.3 0.2-0.2 0.3 0.1 0.3 0.3 0.3-0.2 0.3-0.4 0.5-0.1 0.3-0.1 0.2-0.1 0.2 0 0.4-0.1 0.1-0.1-0.1-0.2-0.1 0-0.1 0-0.2-0.2-0.1-0.2 0.1-0.1 0.2-0.1 0.2 0 0.1-0.1 0.2 0 0.5 0 0.3-0.1 0.3-1 0.1-0.5 0.3-0.3 0.5-0.1 0.7 0.1 0.3 0.3 0.3 0.5 0.3 0.3 0.5 0 0.5-0.1 1.1-0.2 0.1-0.6 0.1-0.2 0.2-0.8 0.6-1.5 1-0.1 0.1-0.1 0.2-2.2 1.5-0.1 0-0.1 0.9 0 0.4 0.1 0.4 0.2 0.4 0.5 1 0.4 0.8 0.2 0.8 0.1 0.9 0.1 0.9-0.1 0.4-0.4 1.2-0.1 0.4 0 0.4 0 0.9 0 0.5-0.5 1.9-15.1 0-9.2 0-14.6 0.1-20-0.1 0-4.4 0-23.7 0-12.4 0-2.6-0.3-9.3-0.6-1.9-34.1 0z" id="ARH" name="Chaco">
  </path>
  <path d="M620.3 252.7l-0.2 0-1.1-0.9-2.4-2.5-0.2-0.4-0.8-1.6-0.2-0.5-0.1-1.1-0.1-0.4-0.3-0.4-0.9-0.8-1.2-1.2-0.5-0.6-0.3-0.5-0.2-0.5 0-0.2-0.2-0.3-0.7-0.5-4-1.1-0.9 0-0.5 0-0.2-0.1-0.1-0.1-0.5-0.4-0.2-0.1-0.3-0.1-0.3 0-0.6 0-2.6 1.1-0.4 0.2-0.4 0.2-1.7 0.3-0.2 0-0.6-0.1-1.2-0.3-0.7-0.1-0.3 0.1-0.5 0.3-1.1 0.7-0.8 0.7-0.2 0.3-0.4 0.3-1.6 0.9-1.9-0.7-1.1-0.2-1.4 0.3-0.2 0-0.5-0.2-0.1 0-0.1 0-0.1 0-1.3 0.6-0.3 0-1.7 0.1-0.1-1.1 0-0.4 0.4-1.2 0.1-0.5 0-0.9 0.1-0.4 0.2-0.4 0.6-1.2 0.1-0.4 0-0.4-0.1-0.9-0.6-2-0.7-1.2-0.2-0.8 0.2-0.6 0.6-1.3 0.1-0.4 0.8-3.2 0-4.9 0.2-0.7 0.7-2.9 0.3-0.6 0.4-0.6 0.6-0.4 0.6-0.4 2-0.7 0.6-0.5 0.6-0.5 0.6-0.5 0.9-0.5 0.3-0.3 0.3-0.6 0.1-0.8 0-1.6 0.1 0 0.2-0.4 0.4-0.8 0.2-0.5 0-0.6 0.2-0.8 0-0.2 0-0.2 0-0.2 0-0.4 0.1-0.4 0.8-1.6 0.1-0.4 0.1-0.4 0.1-0.5-0.1-1.8 0.5-3-0.1-0.4-0.4-1.1-0.1-0.4 0.2-1.3 0-0.5-0.1-0.8 0-0.5 0-0.4 0.1-0.4 0.2-0.4 0.3-0.2 0.4-0.2 0.4-0.1 0.8 0 0.7-0.1 0.6-0.5 0.5-0.5 0.4-0.7 0.2-1 0.5-1.9 0-0.5 0-0.9 0-0.4 0.1-0.4 0.4-1.2 0.1-0.4-0.1-0.9-0.1-0.9-0.2-0.8-0.4-0.8-0.5-1-0.2-0.4-0.1-0.4 0-0.4 0.1-0.9 0.1 0 2.2-1.5 0.1-0.2 0.1-0.1 1.5-1 0.8-0.6 0.2-0.2 0.6-0.1 0.2-0.1 0.1 0 1.9-0.9 5.6-0.4 2.3 0.2 0.3 0 1.2-0.2 0.7 0 0.4 0.1 1.2 0.3 0.6 0.2 0.3 0.1 0.9 0.2 0.1 0 0.8 0.3 2.2 0.4 0.2 0.1 3.4 1.8 0.3 0.1 0.1 0 0.6 0.1 2-0.3 0.6 0 0.1 0 0.4 0.1 0.2 0.1 0.3 0.4 0.2 0.1 0.2 0.1 0.2 0.1 0.9 0.2 0 0.1 0.3 0.1 0.5 0.4 0.2 0.1 0.2 0.1 0.5 0 0.2 0.1 0.8 0 0.7-0.2 2-1.1 0.8-0.3 0.7-0.1 0.8 0.3 1.2 1.3 0.8 0.5 0.8-0.2 1-0.8 1-0.3 0.5-0.1 1.3 0.2 0.9 1 0.4 0.7 0.5 0.6 0.6 0.5 0.7 0.2 0.7-0.1 0.3-0.6 0.3-0.7 0.4-0.6 0.4-0.4 0.3-0.5 0-0.5 0-0.7 0.1-0.5 0.4-0.2 0.6-0.2 0.5-0.2 0.8-0.9 0.4-0.3 0.5-0.3 0.5 0.1 0.5 0.1 1.4 0.5 0.5 0.1 0.4 0-0.6 0.4-0.1 0.2 0 0.1-0.3 0.7-0.1 0.3 0 0.3 0 0.5 0 0.3 3 6.2 0.3 0.8 0.2 0.8 0.1 1.7 0.1 1.1 0.1 0.3 0.2 0.3 0.7 0.7 0.2 0.3 0.2 0.3 0.1 0.3 0 0.5 0.1 0.2 0.1 0.3 0.1 0.2 0.3 0.4 0.7 0.6 1.6 1.1 0.1 0.1 0 0.1-0.2 0.2-0.2 0.1-0.9 0.8-1.3 0.5-0.5 0.4 0.1 0.6 0.2 0.2 0.9 0.3 0.3 0.1 0.2 0.1 0.3 0.3 0.2 0.6-0.3 1.1-0.1 0.3-0.2 0.3-0.2 0.2-0.2-0.1-0.1-0.4-0.3-0.5-0.8-0.2-0.8-0.1-0.7-0.1-0.9 0.4-0.4 0.3 0.1 0.5 0.1 0.2 0 1.1 0 0.2-0.1 0.1-0.2 0.1-0.2 0.1-0.6 0-0.6 0.3-0.7 0.2-0.2 0.3 0 0.4 0 0.5 0 0.9-0.4 0.5-1.3 1-1.7 2.2-0.7 0.5-0.9 0.2-0.5 0.2-0.1 0.4-0.2 2-0.4 0.8-1.4 0.9-0.4 0.9-0.1 0.9 0 0.5-0.3 0.4-0.3 0.2-1.5 0.4-0.7 0.4-0.7 0.5-0.7 0.7-0.6 0.8-0.1 0.3-0.1 0.4 0 0.3 0.1 0.3-0.2 0.5-0.4 1-0.2 0.4-0.3 0.3-0.3 0.2-0.7 0.4-0.2 0.1-0.2 0.2-0.1 0.2-0.1 0.2 0 0.2 0 0.3-0.1 0.2-0.3 0.2-0.2 0.2-0.1 0.3 0 0.3-0.1 0.2-1.6 1.4-0.2 0.3-0.1 0.2-0.8 0.7-0.3 0.4-0.3 0.8-0.6 0.6-0.1 0.3-0.2 0.2-1.5 1.7-0.4 0.3-0.4 0.1-0.9 0.1-0.9 0.1-0.9 0.3-0.6 0.6-0.3 0.8-0.2 2.8-0.2 0.3-1.8 1.4-1.9 2.5-0.9 0.7-0.4 0.1-0.9 0.2-0.5 0-0.2 0.2 0.1 0.5 0.3 1.1-0.1 0.9-0.5 0.8-4 3.7-0.6 0.7-0.3 0.9 0.1 0.9 0.5 1 0.3 0.4 0.4 1 0.2 0.6 0.2 0.8z" id="ARW" name="Corrientes">
  </path>
  <path d="M398.9 121.6l0.3 0.1 14 2.8 25-0.4 0.7 0.1 0.1 0 0.1 0.1 0.1 0.1 0.1 0.1 0.2 0.5 0.1 0.2 0.2 1.7 0 0.1 0.1 0.3 0 0.1 0.3 0.4 0.4 0.5 0.2 0.3 0.1 0.2 0 0.2 0 0.1 0 0.3-0.5 1.8 0 0.2 0 0.2 0 0.2 0 0.1-0.1 0.2-0.3 0.3-1 0.8-0.2 0.1-0.1 0-0.2 0-0.9 0-0.8 0.1-1.4 0-0.1 0.1-0.1 0-0.1 0.1-0.4 0.4-0.3 0.2-0.1 0.1-0.2 0.1-0.2 0.2 0 0.1-0.1 0.2 0 0.2-0.1 0.6 0 0.9 0.3 1.1 0.5 0.8 1.6 2.5 1.7 2.2 0.3 1 0.2 0.2 0.5 0.6 0.8 1.9 0.4 0.5 1.3 1.6 0.7 0.6 0.1 0.2 0.2 0 0.1 0.1 0.1 0 0.2 0 0.1-0.1 0.2-0.2 0.1-0.1 0.1-0.1 1-2.4 0.2-0.4 0.2-0.2 0.6-0.4 0.4-0.7 0.2-0.3 0.2-0.1 0.3-0.2 0.4 0 0.3 0 0.4 0.1 0.3 0.2 0.4 0.7 0.6 0.6 0.8 0.5-0.1 0.5-0.2 0.1-0.2 0.3-0.3 0.3-0.1 0.3-0.1 0.5 0 0.4-0.1 0.5-0.1 0.6-0.5 1-0.4 1.1 0 0.4 0 0.2 0.1 0.3 0.3 0.5 0.3 0.2 0.5 0.2 0.4 0 0.5 0.2 0.5 0.2 0.3 0.2 0.7 0.7 1.4 1.1 0.9 0.5 0.1 0.1 0.1 0 0.1 0.2 0 0.1 0.1 0.1 0 0.2 0 0.2 0 0.3 0 0.2-0.3 1.4 0 0.3 0 1.3 0 0.3-0.1 0.3-0.2 0.6-0.6 0.9-1.4 1.5-0.7 0.7-0.5 0.7-0.4 0.7-0.1 0.3-0.1 0.2-0.1 0.1-0.1 0.2-0.4 0.5-0.5 0.4-0.6 0.7-0.4 0.9-0.5 0.8-0.1 0.1 0 0.1 0.1 0.1 0.2 0.2 0.4 0.1 0.4 0.1 0.7 0.1 0.3 0.1 1.5 0.9 0.6 0.1 0.1 0 0.1 0 0.1 0.2 0 0.1-0.2 0.6 0.7 3.4 0.3 0.6 0.1 1 0.1 0.2 0.1 0.2 0.1 0.1 0.3 0.3 0.2 0.1 0.3 0.2 0.1 0.1 0.1 0.3 0.3 0.9 0 0.5 0.1 0.3 0.2 0.2 0.1 0.1 0.4 0.3 0.5-0.2 0.2-0.1 0.2-0.1 0.4 0 0.9 0.5 0.2 0.2 0.1 0.1 0.2 0.7 0.2 1.2 0.3 0.9 0.2 0.3 1.7 2.2 0.3 0.1 0.1-0.2 0.5-1.1 0.5-0.8 0.2-0.1 0.7-0.5 0.6-0.7 1.7-1.1 0.2 0 0.2 0 0.3 0.2 0.3 0.2 0.4 0.4 0.4 0.3 0.4 0.2 0.3 0.1 0.3 0 0.4 0 0.6-0.3 1.8 8.6 0.2 3.5-0.2 1.3-0.2 0.6-0.3 0.4-0.5 0.5-0.3 0.5-0.2 0.5-0.1 0.1-0.4 0.2-0.1 0.1 0 0.2 0 0.8 0.1 0.1 0 0.1 0.1 0.1 0.2 0 0.8 0.5 0.4 0.4 0.1 0.1 0.1 0.1 0 0.4 0.4 4.6-0.1 2 0.9 6.9 0.9 2.2 1.4 2.4 0.2 0.5 0 0.1 0.2 0.5 0.5 0.6-1.4 0.5-0.2 0.8 0.6 5.5-0.1 0.5-0.2 0.4-2.2 2.5-1.8 1.9-1 0.6-4.5 1.2-3.4-7.1-0.8-2.2-1.2-2.7-1.4-3.2-0.2-0.9-0.2-1.4 0-0.3 0-0.5 0-1.1-0.1-0.2-0.1-0.4-0.7-1.2-3.6-3.7-0.2-0.1-0.5-0.2-2.5-2.6-0.9-0.6-3.5-1.7-0.4-0.3-0.2-0.2-0.3-0.4 0-0.1 0-0.2 0-0.1 0.2-0.3 0.1-0.2 0.2-0.2 0.4-0.7 0-0.1 0-0.1 0-0.2 0-0.2-0.3-0.2-0.5-0.2-0.1 0-0.4-0.3-0.6-0.7-0.8-1-0.2-0.4-0.2-1.9-0.2-0.8-0.1-0.2-0.1-0.1-0.1-0.2-0.2-0.3-0.7-0.5-0.7-1-4-1.7-4.1-1.5-0.6 0-0.5 0.3-0.2 0.1-0.2 0.1 0 0.1-0.1 0-0.1 0.2 0 0.1-0.1 0.1-0.4 0.4-0.1 0.2-0.2 0.1-0.3 0.1-1.5 0.3-1.6 0-9.2-0.4-1.3 0.3-0.3 0.2-0.5 0.5-0.3 0-0.2-0.3-0.1-0.2-0.1-0.4 0-0.1 0-0.1-0.2-0.2-0.3-0.3-1-1.4 0-0.1-0.2-0.8-0.1-1-0.1-0.3 0-0.2 0.1-0.4 0-0.2-0.1-0.1-0.1-0.1-0.2 0-0.3 0-0.2 0.1-0.3 0.1-0.2 0.1-0.3 0-0.1 0-0.4 0.1-0.4 0.2-0.4 0.2-0.2 0.1-0.2-0.1-0.2 0-0.2-0.2-0.3-0.3 0-0.1-0.2-0.3-0.2-0.1-0.1-0.1-0.2-0.1-0.9-0.3-0.6 0-0.6 0-0.2 0-0.1-0.1-0.2 0-0.2-0.2-0.2-0.3-0.2-0.4-0.3-0.3-0.2-0.2-0.2-0.1-0.1-0.1-0.2 0-0.4-0.1-0.4 0-0.2 0-0.2 0-0.1-0.1-0.3-0.2-0.1 0 0-0.2 0-0.1 0-0.2 0-0.3 0.3-1.2 0-0.1 0-0.1 0-0.2 0-0.1-0.3-0.4 0-0.1-0.1-0.2 0-0.3 0.1-0.3 0-0.1 0.3-1.1 0.1-0.3 0-0.2-0.1-0.1 0-0.1 0-0.1-0.1-0.1-0.1-0.1-0.3-0.1-0.9-0.1-0.2 0.1-0.3 0.1-0.2 0.2-0.2 0.1-0.1 0.2-0.1 0-0.4 0.2-0.1 0-0.2 0-0.3-0.1-0.2-0.1-0.5-0.2-0.1-0.1-0.2 0-0.2 0-0.5 0.1-1.5 0.2-0.2 0.1-0.4 0.2-1.4 0.4-5.6-0.5-0.3 0 0.2-0.9 0.2-0.3 0.2-0.1 0.5-0.3 0.1-0.2 0-0.3-0.2-0.3-0.1-0.3 0-0.4 0.1-0.3 0.5-0.4 0.2-0.3 0.5-1.1 0.2-0.6 0.1-0.6-0.1-0.3 0-0.3 0-0.3 0.2-0.3 0.3-0.2 0.8-0.4 0.3-0.3 0.2-0.3 1-2.4 0.1-0.3 0-1 0-0.4 0.2-0.5 0.9-1.5 0.3-0.3 0.2-0.2 0.8-0.2 0.9 0.1 0.8 0.4 0.7 0.6 0.8 0.3 0.5 0 0.2-0.4 0.1-0.4 0.3-0.5 0.3-0.4 0.5-0.3 0.5-0.2 1-0.1 0.5-0.1 0.9-0.4 0.2 0 0.6 0 0.2 0 0-0.2 0-0.5 0-0.3 0.1-0.5 0.4-0.8 0.1-0.4-0.1-0.7-0.3-0.6-3.9-5.6-0.7-1-0.6-0.9-0.3-0.9-0.2-1.2 0-1.8 0.2-1 0.2-0.8 0.6-0.8 2.6-2 0.3-0.8-0.2-1.2-1.5-5.9-0.2-1.9-0.2-0.6-0.3-0.6-0.4-0.4-0.4-0.5 0-0.7 0-0.6-0.2-0.5 0.3-0.3-0.2-0.5-0.8-0.9-0.1-0.4 0-0.5 0.1-0.8 1-3.4 0.8-2.4 0.4-0.6z" id="ARK" name="Catamarca">
  </path>
  <path d="M385.7 182.1l0.3 0 5.6 0.5 1.4-0.4 0.4-0.2 0.2-0.1 1.5-0.2 0.5-0.1 0.2 0 0.2 0 0.1 0.1 0.5 0.2 0.2 0.1 0.3 0.1 0.2 0 0.1 0 0.4-0.2 0.1 0 0.1-0.2 0.2-0.1 0.2-0.2 0.3-0.1 0.2-0.1 0.9 0.1 0.3 0.1 0.1 0.1 0.1 0.1 0 0.1 0 0.1 0.1 0.1 0 0.2-0.1 0.3-0.3 1.1 0 0.1-0.1 0.3 0 0.3 0.1 0.2 0 0.1 0.3 0.4 0 0.1 0 0.2 0 0.1 0 0.1-0.3 1.2 0 0.3 0 0.2 0 0.1 0 0.2 0.1 0 0.3 0.2 0.1 0.1 0.2 0 0.2 0 0.4 0 0.4 0.1 0.2 0 0.1 0.1 0.2 0.1 0.2 0.2 0.3 0.3 0.2 0.4 0.2 0.3 0.2 0.2 0.2 0 0.1 0.1 0.2 0 0.6 0 0.6 0 0.9 0.3 0.2 0.1 0.1 0.1 0.2 0.1 0.2 0.3 0 0.1 0.3 0.3 0.2 0.2 0.2 0 0.2 0.1 0.2-0.1 0.4-0.2 0.4-0.2 0.4-0.1 0.1 0 0.3 0 0.2-0.1 0.3-0.1 0.2-0.1 0.3 0 0.2 0 0.1 0.1 0.1 0.1 0 0.2-0.1 0.4 0 0.2 0.1 0.3 0.1 1 0.2 0.8 0 0.1 1 1.4 0.3 0.3 0.2 0.2 0 0.1 0 0.1 0.1 0.4 0.1 0.2 0.2 0.3 0.3 0 0.5-0.5 0.3-0.2 1.3-0.3 9.2 0.4 1.6 0 1.5-0.3 0.3-0.1 0.2-0.1 0.1-0.2 0.4-0.4 0.1-0.1 0-0.1 0.1-0.2 0.1 0 0-0.1 0.2-0.1 0.2-0.1 0.5-0.3 0.6 0 4.1 1.5 4 1.7 0.7 1 0.7 0.5 0.2 0.3 0.1 0.2 0.1 0.1 0.1 0.2 0.2 0.8 0.2 1.9 0.2 0.4 0.8 1 0.6 0.7 0.4 0.3 0.1 0 0.5 0.2 0.3 0.2 0 0.2 0 0.2 0 0.1 0 0.1-0.4 0.7-0.2 0.2-0.1 0.2-0.2 0.3 0 0.1 0 0.2 0 0.1 0.3 0.4 0.2 0.2 0.4 0.3 3.5 1.7 0.9 0.6 2.5 2.6 0.5 0.2 0.2 0.1 3.6 3.7 0.7 1.2 0.1 0.4 0.1 0.2 0 1.1 0 0.5 0 0.3 0.2 1.4 0.2 0.9 1.4 3.2 1.2 2.7 0.8 2.2 3.4 7.1-1.7 5-0.3 0.7-0.4 0.7-0.1 0.3-0.3 0.9-0.5 1.7-0.2 0.7 0 0.4-1.7 5.1-0.4 1.2-0.3 0.8-1.4 4.1-0.2 1.5 0 4.2 0.1 8.5 0 6.4-2 0.4-1 0-0.4-0.1-0.1 0-0.2-0.1-0.3-0.2-0.1-0.1-0.2 0-1-0.2-0.8 0-1 0.2-0.5 0.2-0.8 0.5-1.1 0.4-1 0.1-1-0.1-0.3 0-0.7 0.2-0.2 0-0.2 0-0.5-0.3-0.3-0.1-0.2-0.1-0.2 0-1.1 0.2-0.1 0-0.5-0.3-0.2-0.1-0.1-0.1-0.2 0.1-0.4 0.2-0.4 0-0.2 0-0.1 0-0.2-0.1-0.6-0.3-0.5-0.2-1.4-0.3-0.5-1.5-0.6-1-0.2-0.2-0.1-0.1-0.2 0.1-0.1 0-0.2-0.1-0.2-0.2-0.1-0.1 0-0.2 0-0.7-0.3-1 0-0.2 0-0.4-0.1-0.3-0.1-0.1-0.1-0.1-1.2-0.1-0.3-0.1-0.1 0-0.2-0.2-1.7-1.7-0.2-0.2-0.1-0.2 0-0.3 0-1.2-0.2-0.6-0.7-1.4-0.2-0.6 0.9-6.6-1.1-1-0.1-0.8 0.8-2.5-0.1-0.2 0-0.1-0.4-0.6-0.3-0.6-0.3-0.4-0.2-0.4-0.8-2-0.2-0.3-0.2-0.1-0.1-0.1-0.9-0.4-0.2-0.1-0.1-0.2-0.6-0.8-0.1-0.2-1-1.6-0.3-0.3-0.2-0.2-0.4-0.3-0.9-0.7-0.3-0.3-0.1-0.2-0.5-1.1-0.1-0.1-0.2-0.2-1.3-0.8-0.2-0.2-0.1-0.1 0-0.1-0.1-0.3-0.2-1-0.3-0.5-0.6-1.1-0.2-0.2-2.9-2.3-0.2-0.2-0.5-0.9-0.2-0.1-0.1-0.2-1.1-0.4-0.2-0.2-0.6-0.4-0.3-0.3-0.5-0.9-0.2-0.1-0.1-0.1-0.8-0.5-0.1-0.1-0.1-0.2-0.2-0.4-0.1-0.4-1-1-0.4-0.4-1-0.2-0.1-0.1-0.1-0.1-0.1-0.1 0-0.1-0.1-0.3-0.1-0.3-0.2-0.2-0.2-0.3-1.2-0.8-0.9-0.5-0.3-0.4-0.5-0.8-0.1-0.1-0.2-0.1-0.6 0-2.6-0.9-0.6 0-0.3 0-0.5 0.1-0.3 0-0.2 0-0.3-0.1-0.2 0-0.2-0.1-1.1-0.8-0.3-0.1-0.2 0-0.5 0.1-0.6 0.1-1.1 0.5-0.1 0-0.2 0-0.3 0-0.3 0-0.6-0.3-0.2 0-0.2 0-1.1 0.4-0.5 0-0.8-0.3 0-0.1-0.1-0.2-0.1-0.2 0-0.7 0.1-1.2 0.1-0.3 0-0.1 0.3-0.5 0.3-0.4 0.1-0.1 0-0.3 0-0.2-0.1-0.6 0.1-1.5 0.1-0.3 0.1-0.2 0.1 0 0.1 0 0.2-0.1 0.1-0.1 0.1-0.2 0-0.1 0-0.2-0.1-0.1 0-0.1-0.2-0.3-0.2-0.5-0.4-0.3-0.3-0.4-0.1-0.9 0-1 0.1-0.8 0.6-0.9 0.1-0.2 0.3-0.2 0.2-0.1 0.3-0.1 0.2-0.1 0.2-0.4 0-0.3 0-0.2-0.1-0.3-0.1-0.1-0.1-0.2-0.1-0.1-0.2-0.3-0.5-0.4-0.3-0.2-0.1-0.3-0.3-0.8-0.2-0.8-0.3-0.4-0.3-0.4-1.4-1.3-0.2-0.6-0.2-0.9-0.3-0.8-0.3-0.5-0.2-0.9-0.6-0.6-3.1-2.6-0.1-0.1-0.2 0-1 0.1-0.2-0.1-0.2-0.1-0.3-0.1-0.1-0.1-0.1-0.2-0.3-0.5-0.1-0.2-0.2-0.1-0.1 0-0.2 0.1-0.2 0.1-0.4 0.1-0.2 0-0.3 0-0.2-0.1-0.2 0-0.4-0.3-0.1-0.1-1.4-0.4 0.9-1 1.1-0.9 0.9-1.2 0.2-0.4 0.3-1.2 0.2-0.3 0.5 0.2 0.4 0.3 0.3 0.1 0.2-0.2 0.4-1 0.5-0.7 0.8-1.8 0.4-0.4 0-0.2-0.1-0.1 0-0.2 0.2-0.4 0.3-0.2 0.3-0.2 1.2-0.3 0.6-0.4 0.3-0.7 0.8-3.5z" id="ARF" name="La Rioja">
  </path>
  <path d="M375 196.8l1.4 0.4 0.1 0.1 0.4 0.3 0.2 0 0.2 0.1 0.3 0 0.2 0 0.4-0.1 0.2-0.1 0.2-0.1 0.1 0 0.2 0.1 0.1 0.2 0.3 0.5 0.1 0.2 0.1 0.1 0.3 0.1 0.2 0.1 0.2 0.1 1-0.1 0.2 0 0.1 0.1 3.1 2.6 0.6 0.6 0.2 0.9 0.3 0.5 0.3 0.8 0.2 0.9 0.2 0.6 1.4 1.3 0.3 0.4 0.3 0.4 0.2 0.8 0.3 0.8 0.1 0.3 0.3 0.2 0.5 0.4 0.2 0.3 0.1 0.1 0.1 0.2 0.1 0.1 0.1 0.3 0 0.2 0 0.3-0.2 0.4-0.2 0.1-0.3 0.1-0.2 0.1-0.3 0.2-0.1 0.2-0.6 0.9-0.1 0.8 0 1 0.1 0.9 0.3 0.4 0.4 0.3 0.2 0.5 0.2 0.3 0 0.1 0.1 0.1 0 0.2 0 0.1-0.1 0.2-0.1 0.1-0.2 0.1-0.1 0-0.1 0-0.1 0.2-0.1 0.3-0.1 1.5 0.1 0.6 0 0.2 0 0.3-0.1 0.1-0.3 0.4-0.3 0.5 0 0.1-0.1 0.3-0.1 1.2 0 0.7 0.1 0.2 0.1 0.2 0 0.1 0.8 0.3 0.5 0 1.1-0.4 0.2 0 0.2 0 0.6 0.3 0.3 0 0.3 0 0.2 0 0.1 0 1.1-0.5 0.6-0.1 0.5-0.1 0.2 0 0.3 0.1 1.1 0.8 0.2 0.1 0.2 0 0.3 0.1 0.2 0 0.3 0 0.5-0.1 0.3 0 0.6 0 2.6 0.9 0.6 0 0.2 0.1 0.1 0.1 0.5 0.8 0.3 0.4 0.9 0.5 1.2 0.8 0.2 0.3 0.2 0.2 0.1 0.3 0.1 0.3 0 0.1 0.1 0.1 0.1 0.1 0.1 0.1 1 0.2 0.4 0.4 1 1 0.1 0.4 0.2 0.4 0.1 0.2 0.1 0.1 0.8 0.5 0.1 0.1 0.2 0.1 0.5 0.9 0.3 0.3 0.6 0.4 0.2 0.2 1.1 0.4 0.1 0.2 0.2 0.1 0.5 0.9 0.2 0.2 2.9 2.3 0.2 0.2 0.6 1.1 0.3 0.5 0.2 1 0.1 0.3 0 0.1 0.1 0.1 0.2 0.2 1.3 0.8 0.2 0.2 0.1 0.1 0.5 1.1 0.1 0.2 0.3 0.3 0.9 0.7 0.4 0.3 0.2 0.2 0.3 0.3 1 1.6 0.1 0.2 0.6 0.8 0.1 0.2 0.2 0.1 0.9 0.4 0.1 0.1 0.2 0.1 0.2 0.3 0.8 2 0.2 0.4 0.3 0.4 0.3 0.6 0.4 0.6 0 0.1 0.1 0.2-0.8 2.5 0.1 0.8 1.1 1-0.9 6.6 0.2 0.6 0.7 1.4 0.2 0.6 0 1.2 0 0.3 0.1 0.2 0.2 0.2 1.7 1.7 0.2 0.2 0.1 0 0.3 0.1 1.2 0.1 0.1 0.1 0.1 0.1 0.1 0.3 0 0.4 0 0.2 0.3 1 0 0.7 0 0.2 0.1 0.1 0.2 0.2 0.2 0.1 0.1 0 0.2-0.1 0.1 0.1 0.2 0.2 0.6 1 0.5 1.5-5.3 0.3-0.7-0.2-0.2 0-0.1-0.1-0.1 0-0.2-0.3-0.2-0.1-0.3-0.1-0.4-0.1-0.3 0-0.2 0-0.7 0.2-1.7 0.2-0.5-0.1-0.3 0-0.6-0.2-0.9-0.2-0.5 0.3-0.2 0.2-0.1 0.2-0.1 0.2 0 0.2 0 0.1 0 0.3 0.1 0.6 0.1 0.2-0.1 0.4 0 0.1 0.1 0.1 0 0.2 0.1 0.3 0 0.2-0.1 0.1-0.3 1.1 0 0.3-0.1 0.2 0.1 0.5 0 0.4 0 1.5 0 0.8 0 1.6-1.5-1.1-0.6-0.1-0.2 0.2-0.2 0.1-0.3 0.1-1.4 0-1.2 0.2-0.6 0.1-0.1 0-0.4 0.2-0.2-0.1-0.1 0-0.3 0.2-0.1 0-1.9-0.3-0.2-0.1-0.4-0.8-0.3-0.2-0.3-0.3-0.8-0.4-0.2-0.2-0.2-0.8-0.2-0.3-0.6-0.6-0.7-0.5-0.7 0-2.3 0.6-0.2 0.1-0.9 0.7-0.7 0.3-0.4 0.1-2.5 0.2-0.3 0.2-0.2 0.2-0.3 0.5-0.6 0.5-3.7 2.5-1.1 0.6-4 0.1-0.2-0.1-0.2-0.2-0.4-6.1 0-0.1-0.1 0-0.3 0-1 0.2-0.7-0.1-0.3-0.2-0.4-0.3-0.2-0.3-0.1-0.2-0.2-0.4-0.8-1-0.3-0.3-0.2-0.1-0.3-0.1-0.3-0.1-0.2 0.1-0.1 0-0.1 0.1-0.1 0.1-0.3 0.4-0.1 0.1-0.1 0.1-0.3 0-0.3 0.2-0.1 0.1-0.1 0.2-0.3 0.7 0 0.1-0.1 0.1-0.1 0-0.1 0.1-0.2 0.1-0.4 0.1-1-0.2-1.1-0.1-0.6 0.1-0.1 0-0.4 0.3-0.5 0.4-0.2 0.2-0.5 0.2-1.3 0.4-0.1 0-0.2 0.2-0.1 0-0.1 0.2-0.1 0.1-0.1 0.2 0 0.1 0 0.2 0 1.3 0 0.3 0 0.2-0.1 0.1 0 0.2-0.1 0.1-0.1 0.1-0.2 0.1-0.2 0.1-0.2 0.1-2.4 0.1-4 1-1-0.2-0.4-0.2-0.9 0-3.2 0.5-0.2 0.1-0.3-0.4-0.5-0.2-0.3 0-0.3-0.2-0.1-0.6 0-0.2 0-0.5 0-0.2-0.1-0.3-0.2-0.5-0.1-0.3 0.1-0.2 0.1-0.4 0.1-0.3-0.1-0.1-0.4-0.3-0.1-0.2 0.1-0.5-0.1-0.2-0.1-0.2-0.4-0.4-0.1-0.2 0.1-0.3 0.3-0.2 0.4 0 0.9 0.4 0.5 0 0.2-0.3 0.2-0.9 0.2-0.3 0.2-0.3 0.1-0.3-0.1-0.5-0.2-0.4-0.4-0.5-0.4-0.3-0.4-0.3-0.9-0.1-0.8 0-0.7-0.2-0.7-0.7-0.2-0.5-0.2-0.5-0.1-0.6 0-1-0.2-0.4-0.6-0.8-1.1-2.2-0.2-0.6-0.1-0.5 0.3-1 0-0.9 0-0.9 0.1-0.5 0.3-0.7 0.1-0.5-0.1-0.5-0.2-0.5 0-0.4 0.5-1 0.1-0.4-0.1-0.9 0.1-0.5 0.1-0.4 1.2-1.8 0.2-0.2 0.4 0.2 0.2 0.5 0.1 0.5 0.2 0.3 0.3 0 0.4-0.3 0.2-0.4 0.2-0.7 0.2-0.5 0.5-0.8 0.3-0.2 0.9 0.2 0.3-0.1 0-0.3-0.3-0.3-0.6-0.6-0.3-0.4-0.2-0.3-0.1-0.5 0.4-3.3 0.3-0.8 0.1-0.2 0.4-0.5 0.1-0.3 0-0.2-0.1-0.3 0-0.3 0.1-0.5 0.1-0.3 0.4-0.8 0.3-0.8 0.4-1.9 0.4-0.6 0.4-0.3 0.3-0.1 0.3-0.3 0.1-0.5-0.1-0.5-0.5-0.9 0-0.4 0.6-0.2 1.7 0.8 0.7 0.2 0.7-0.2 0.6-0.3 0.6-0.5 0.5-0.6 0.2-0.4 0.1-0.5 0-0.9 0.1-0.4 0.1-0.2 0.1-0.2 0.1-0.2 0.5-0.2 0.1-0.1 0.3-0.9-0.3-0.9-0.6-0.6-0.8-0.3-0.8 0.1-0.3-0.1-0.2-0.4 0.1-0.3 0.7-1.1 0.3-0.9 0.1-0.9 0.1-3.2-0.2-2 0-0.1-0.2-0.3-0.5-0.4-0.2-0.5 0-0.5 0-0.7 0.1-0.8-0.5-2.2-0.1-0.3-0.1-0.3-0.2-0.2-0.2-1.2-0.2-0.4-0.1-0.3-0.2-0.3 0-0.4 0.1-1.2 0.2-0.4 0.4-0.3 0.2-0.1 0.2-0.1 0.2-0.2 0.1-0.2 0-0.2-0.3-0.3 0-0.1 0.1-0.2 0.1 0 0.1-0.1 0.3-0.3 0.6-0.3 0.2-0.2 0.2-0.3 0-0.2 0-0.1 0.4-0.2 1-0.1 0.5-0.3 0.4-0.5 0.1-0.5 0-0.6-0.1-1.2-0.1-0.5 0-0.5 0.1-0.4 0.1-0.5 0.2-0.3 0.3-0.4 0.1-0.2 0-0.1 0-0.2 0.1-0.3 0.6-1 0-0.5 0-0.5-0.3-1-0.1-0.5 0-0.8 0.3-0.8 0.4-0.7 0.4-0.6 0.2-0.1 0.1-0.1 0.2-0.1 0-0.2 0.1-2.5 0.4-1.4z" id="ARJ" name="San Juan">
  </path>
  <path d="M362.5 290.8l0.2-0.1 3.2-0.5 0.9 0 0.4 0.2 1 0.2 4-1 2.4-0.1 0.2-0.1 0.2-0.1 0.2-0.1 0.1-0.1 0.1-0.1 0-0.2 0.1-0.1 0-0.2 0-0.3 0-1.3 0-0.2 0-0.1 0.1-0.2 0.1-0.1 0.1-0.2 0.1 0 0.2-0.2 0.1 0 1.3-0.4 0.5-0.2 0.2-0.2 0.5-0.4 0.4-0.3 0.1 0 0.6-0.1 1.1 0.1 1 0.2 0.4-0.1 0.2-0.1 0.1-0.1 0.1 0 0.1-0.1 0-0.1 0.3-0.7 0.1-0.2 0.1-0.1 0.3-0.2 0.3 0 0.1-0.1 0.1-0.1 0.3-0.4 0.1-0.1 0.1-0.1 0.1 0 0.2-0.1 0.3 0.1 0.3 0.1 0.2 0.1 0.3 0.3 0.8 1 0.2 0.4 0.1 0.2 0.2 0.3 0.4 0.3 0.3 0.2 0.7 0.1 1-0.2 0.3 0 0.1 0 0 0.1 0.4 6.1 0.2 0.2 0.2 0.1 4-0.1 1.1-0.6 3.7-2.5 0.6-0.5 0.3-0.5 0.2-0.2 0.3-0.2 2.5-0.2 0.4-0.1 0.7-0.3 0.9-0.7 0.2-0.1 2.3-0.6 0.7 0 0.7 0.5 0.6 0.6 0.2 0.3 0.2 0.8 0.2 0.2 0.8 0.4 0.3 0.3 0.3 0.2 0.4 0.8 0.2 0.1 1.9 0.3 0.1 0 0.3-0.2 0.1 0 0.2 0.1 0.4-0.2 0.1 0 0.6-0.1 1.2-0.2 1.4 0 0.3-0.1 0.2-0.1 0.2-0.2 0.6 0.1 1.5 1.1 0.1 1.1 0.5 2.2 0.5 0.4 0.2 0.2 0.2 0.3 0 0.2 0 0.4 0.1 0.1 0.1 0.2 0.1 0.2 0.1 0.2 0.1 0.7 0.3 0.7 0 0.4 0.1 0.3 0.4 2 0.1 0.4 0.2 0.2 0.2 0.3 0.2 0.2 0.2 0.2 0.1 0.4 0.1 0.4 0.2 0.3 0.1 0.3-0.4 0.7-0.1 0.7-0.1 0.2 0.3 1.1 0 0.5-0.4 0.3-0.1 0.3 0.2 0.7 0.4 1 0 0.3-0.1 0.5 0 0.3 0.1 0.2 0.2 0.5 0.1 2.3-0.1 1.9 0.1 0.7 0.2 0.2 0 0.9 0.5 1.2 0 0.4 0 1.1 0 0.5 0.2 0.6 2 3.4 0.4 0.4 0.1 0.3 0.3 0.8 0.1 0.3 0.3 1.1 0.5 0.8 0.5 1.7 0 0.5 0.2 0.3 0.4 0.3 0.7 0.5 0.3 0.3 0.4 0.3 0.2 0.5 0.2 1.1 0.3 0.4 0.3 0.2 0.3 0.2 0.2 0.4 0.1 0.8 0.4 0.6 0 0.4-0.1 0.8-0.1 1.3-0.1 0.5-0.3 0.4-0.1 0-0.3-0.2-0.1 0-0.1 0.1-0.1 0.4-0.3 0.5 0 0.3 0.2 0.6 0 1.9 0.3 0.5-0.3 0.5 0.2 0.4 0.3 0.2 0.2 0.5 0.1 2.2 0.5 1.6 0.1 0.5 0.2 0.4 0.9 1.1 2.5 4.9 0.5 1.9 0.1 0.5-0.2 1.3 0 0.3 0.3 1 0.1 0.4 0.1 0.3 0.4 0.8 0.1 0.4 0 0.4-0.4 1.5 0.2 0.3 0.1 0.2 0.1 0.2 0 0.3-0.1 0.3-0.1 0.2-0.1 0.1 0.3 1.6 0 0.4-0.3 1.6 0 2.3-0.1 0.5-0.7 1.4-0.2 2.6-0.9 4-0.1 1.9-0.3 1.2 0 0.4 0.1 0.8 0.2 0.1-9.2 0-1.6 0-23 0-0.4 0.2-0.3 0.3-0.2 1.7-0.1 1.1 0.1 0.4 0.1 0.3 0.6 3.1 0.2 14.3 0 18.9-3.7-0.5-0.4-0.3-0.3-0.4-0.7-1.4-0.3-0.3-0.4-0.2-1.3 0-0.3 0-0.4-0.3-0.3-0.1-0.6 0.1-0.2-0.1-0.4-0.2-0.8-1-0.5-0.2-2.6 0.3-1.1-0.2-1-0.3-0.7-0.5-0.4-0.8-0.5-2-0.5-0.8-0.4-0.2-1-0.4-0.9-0.2-1.3-0.6-0.9-0.1-3.6 0.7-1.1 0-1-0.3-0.9-0.3-1.7-1-0.7-0.7-1.5-2-0.1-0.3 0.1-0.3 0.3-0.4 0.2-0.3 0-0.3 0-0.5 0.1-0.2-0.1-0.4-0.1-1.1-0.3-0.4-0.3-0.1-0.3-0.2-0.6-0.3-0.1 0-0.8-0.7-0.2-0.3-0.1-0.2-0.3-1-0.2-0.5-0.2-0.4-0.7-0.6-0.4-0.2-0.1-0.1-0.1-0.1-0.1-0.1-0.2-0.5-0.4-0.4-0.1-0.2-0.2-0.2-0.1-0.1-1.6-0.4-0.2-0.2-0.1-0.1-0.2-0.3-0.5-0.9-0.6-1.7 0-0.4-0.5-1.7-0.1-0.2-0.1-0.1-0.2-0.3-0.2-0.1-0.2 0-0.1 0-0.1 0-0.1 0.1-0.1 0.1-0.2 0.2-0.1 0.1-0.1 0-0.1 0-0.2 0-0.1-0.1-0.1-0.1-0.1-0.1-0.2-0.4-0.2-0.7-0.1-0.2 0-0.2 0-0.5 0-0.2 0.1-0.2 0.1-0.1 0.1-0.1 0-0.1 0.1-0.1 0.1-0.1 0-0.3 0-0.8 0-0.3-0.1-0.2-0.1-0.4-0.1-0.1-0.3-0.3-0.8-0.6-0.1-0.2 0.1-0.3 0.3-0.9 0.1-0.2 0.4-0.4 0.1-0.3 0-0.4-0.7-1.6 0.1-0.3 0.1-0.5 0.1-0.1 0.2-0.2 0.1-0.1 0.1-0.2-0.2-0.2-0.4 0-0.2-0.1 0-0.9 1.3-1.3-0.1-0.9-0.3-0.5-0.9-2.6-0.1-0.4 0.3-0.9 0-0.5-0.2-1.1 0.2-1-0.1-0.4-0.3-0.3-0.3-0.5-0.5-1.6-0.1-0.4 0.3-0.2 0.4-0.2 0.2-0.2-0.2-0.6-0.7-0.5-1-0.1-0.8-0.3-0.4-1 0.8-1.3 3.2-1 0.4-1.8-0.1-1.8 0.4-1.8 1.6-3.9-0.1-0.3-0.3-0.3-0.3-0.3-0.2-0.5 0.2-0.1 0.3-0.1 0.4-0.2 0.5-0.8 0.2-2 0.3-0.8 0.4-0.4 0.8-0.8 0.4-0.5 0.4-1.2 0.3-0.6 1-0.8 0.2-0.5 0-0.5-0.1-0.8 0-0.7 0.1-0.6 0.2-0.2 0.2-0.2 1-0.2 0.5 0.1 0.4 0.1 0.7 0.2 0.1-0.1 0.1-0.1 0-0.2 1.5-0.6 0-0.2-0.1-0.6-0.5-1-0.2-0.4-0.1-0.4 0-0.2 0.1-0.2 0.1-0.4 0.2-1.9 0-1.2-0.2-0.6-0.4-0.1-0.3 0.1-0.2-0.1 0-0.7 0.2-1 0-0.4-0.3-1.9 0-0.6 0.1-0.3 0.7-0.5 0.3-0.3 0-0.4-0.6-0.8-0.1-0.4 0-0.5 0.4-1.4 0-0.3-0.1-0.2 0-0.2 0.1-0.3 0.1-0.1 0.4-0.1 0.2-0.1 0.1-0.3 0-1.2 0.1-0.4 0.2-0.4 0.6-0.7 0.1-0.3 0-0.5-0.4-0.9-0.1-1.4-0.5-0.6-0.7-0.4-0.7-0.2-0.8 0.1-0.9 1.3-0.5 0.1-0.7-1.5-0.2-0.4-0.7-0.5-0.3-0.4-0.2-0.4 0-0.5 0.4-1.5-0.1-0.5-0.2-0.4-0.1-0.4 0.2-0.5 0.3-0.2 0.6-0.2 0.3-0.2 0.2-0.4 0.2-1 0.1-0.5 0.4-0.7 0-0.3-0.3-0.2-0.5-0.2-0.3-0.2-0.7-0.7-1.1-1.3-0.3-0.8-0.5-2.6-0.1-0.6 0.1-0.5 0.1-0.2 0.1-0.1 0.5-0.1 0.1 0-0.4-0.7 0-0.4 0-0.5 0-0.5-0.3-0.5-0.3-0.3-0.8-0.4-0.4-0.8 0.1-1.8-0.3-0.4z" id="ARM" name="Mendoza">
  </path>
  <path d="M358.9 386.4l0.1 0.2 0.8 0.6 0.3 0.3 0.1 0.1 0.1 0.4 0.1 0.2 0 0.3 0 0.8 0 0.3-0.1 0.1-0.1 0.1 0 0.1-0.1 0.1-0.1 0.1-0.1 0.2 0 0.2 0 0.5 0 0.2 0.1 0.2 0.2 0.7 0.2 0.4 0.1 0.1 0.1 0.1 0.1 0.1 0.2 0 0.1 0 0.1 0 0.1-0.1 0.2-0.2 0.1-0.1 0.1-0.1 0.1 0 0.1 0 0.2 0 0.2 0.1 0.2 0.3 0.1 0.1 0.1 0.2 0.5 1.7 0 0.4 0.6 1.7 0.5 0.9 0.2 0.3 0.1 0.1 0.2 0.2 1.6 0.4 0.1 0.1 0.2 0.2 0.1 0.2 0.4 0.4 0.2 0.5 0.1 0.1 0.1 0.1 0.1 0.1 0.4 0.2 0.7 0.6 0.2 0.4 0.2 0.5 0.3 1 0.1 0.2 0.2 0.3 0.8 0.7 0.1 0 0.6 0.3 0.3 0.2 0.3 0.1 0.3 0.4 0.1 1.1 0.1 0.4-0.1 0.2 0 0.5 0 0.3-0.2 0.3-0.3 0.4-0.1 0.3 0.1 0.3 1.5 2 0.7 0.7 1.7 1 0.9 0.3 1 0.3 1.1 0 3.6-0.7 0.9 0.1 1.3 0.6 0.9 0.2 1 0.4 0.4 0.2 0.5 0.8 0.5 2 0.4 0.8 0.7 0.5 1 0.3 1.1 0.2 2.6-0.3 0.5 0.2 0.8 1 0.4 0.2 0.2 0.1 0.6-0.1 0.3 0.1 0.4 0.3 0.3 0 1.3 0 0.4 0.2 0.3 0.3 0.7 1.4 0.3 0.4 0.4 0.3 3.7 0.5 0 0.2-0.1 4.1 0 24.7 0.1 0.6 0.4 0.4 1 1.2 2.7 4.3 0.2 0.6 0.1 0.5 0 0.3 0.1 0.3 0.3 0.2 0.1 0-2.2 0.6-0.7 0-1-0.4-0.3 0-0.4 0.1-0.2 0.1-0.3 0.1-0.6-0.3-0.5-0.6-0.2 0-0.9 0.8-0.3 0.1-0.7 0.4-1.4 1.7-0.6 0.4-0.7 0.1-0.7 0.4-0.6 0.6-0.5 0.7-0.6 1.2-0.3 0.3-0.3 0.4-0.4 0.2-0.9 0.4-0.2 0.4-0.2 0.3-0.6 0.5-0.2 0.3-0.4 1.4-0.1 0.3-0.1 0.1-1.1 0.7-0.2 0.2-0.1 0.2-0.8 1.4-0.2 0.4-0.2 0.2-0.2 0.1-1 0.5-0.5 0.3-0.2 0.1-0.5 0-0.7 0-0.2 0.1-0.3 0.1-1 0.8-0.1 0-0.5 0.2-0.7 0.4-0.4 0.3-0.3 0.5-0.5 0.7 0 0.1-0.1 0.3-1.1 1.6-0.4 0.4-0.8 0.6-1.5 1.5-0.5 0.4-0.5 0.1-1.9-0.2-0.6 0-0.4 0.1-5 3-0.5 0.4-0.3 0.4-0.1 0.2 0 0.2 0 0.5-0.1 0.3-0.3 0.7-0.1 0.5-0.2 1.6 0 0.3-0.2 0.6-0.1 0.3 0.1 0.8 0 0.3-0.2 0.5-0.4 0.8-0.8 2.1-0.1 0.6 0 1.4-0.1 0.7-0.2 0.5-0.2 0.3-0.2 0.1-0.3 0.2-0.2 0.1-0.2 0-0.5 0-0.1 0-0.3 0.3-0.2 1.2-0.2 0.5-0.6 0.3-1.7-0.1-1.7 0.6-0.8 0-0.7-0.6-0.4-0.4-0.4-0.4-0.4-0.1-0.5 0.1-0.3 0.2-0.9 0.9-0.6 0.5-0.7 0.4-0.8 0.2-0.6-0.1-0.3-0.1-0.7-0.1-0.3 0-0.4 0.1-0.5 0.4-0.3 0.2 0 0.1-0.5 0-0.6 0.2-1 0.5-0.2 0.1-0.2 0.3-0.2 0.2-0.1 0.3-0.1 0.2-0.1 0.4 0 0.2-0.3 0.2-0.7 0.2-0.3 0.2-0.2 0.1-0.1 0.4-0.1 0.1-0.1 0.2-0.4 0.3-0.1 0.1-0.1 0.3-0.1 0.2 0 0.3 0.1 0.3 0.2 0.4 0.4 0.3 0.4 0.2 0.4 0.3 0.3 0.4 0.3 0.5 0.1 0.6-0.1 0.6-0.2 0.4-0.3 0.5-1.3 1.5-0.3 0.6-0.1 0.1-0.2 0.2-0.5 0.3-0.3 0.2-0.6 0.3-1.1 0.4-0.6 0-1.3-0.1-4-1.6-0.7-0.1-1.6 0-1.4-0.3-2.6-0.2-0.2 0 0-0.3 0.4-1.1 0-0.6-0.2-0.7-0.3-0.4-0.8-1.3-0.2-0.6-0.7-2.9 0.1-0.3 1.6-1.7 0.4-0.9 0.1-1 0-0.2-0.2-0.3-0.1-0.3 0.1-0.2 0.4-0.7 0.7-2.5 0.2-0.3 0.2-0.1 0.9 0.3 0.3 0 0.2-0.2 0.8-2 0.1-0.4 0-0.3 0-0.3-0.1-0.2-0.1-0.2-0.3-0.2-0.1 0-0.3 0.1-0.1 0.1 0 0.2-0.1 0.1-0.3-0.1-0.1-0.1-0.5-0.7-0.6-0.7-0.3-0.4-0.2-0.4 0.1-0.2 0.1-0.4 0.1-0.1-0.1-0.3 0-0.3 0.1-0.8 0.1-0.3 0.1-0.2-0.1-0.2-0.2-0.2 0-0.2 0.3-0.4 0.7 0 0.9 0.4 0.8 0.2 0.3-1.1-0.1-0.3-0.1-0.5-0.1-0.3 0.1-0.3 0.1-0.1 0.2-0.1 0.1-0.2 0.7-1.7 0.2-0.6-0.1-0.4-0.3-0.3-0.7-0.6-0.2-0.3-0.1-0.4 0-0.6-0.1-0.6-0.4-1.1-0.1-0.6 0.1-0.5 0.2-0.5 0.1-0.4-0.4-0.8-0.1-0.6 0.1-0.6 0.2-0.5 0.3-0.4 0.3 0 0.7 0.9 0.2 0.2 0.3 0.2 0.3 0.1 0.5-0.1 0.5-0.1 0.4 0.1 0.3 0 0.4-0.4 0.1-0.9-0.9-0.9 0.5-0.9 0.3-0.3 0.4-0.7 0.2-0.4 0.2-0.4-0.3-0.8 0-0.5 0.3-0.5 0.5-0.3 0.4-0.3 0.2-0.7 0.2-2.2-0.3-3.6-0.3-2 0-0.7 0.3-1.7 0.3-0.7 0.6-0.6 1.9-1 0.5-0.4 0.3-0.4 0.1-0.2 0.2-0.1 1.5-0.2 0.4-0.2 1.2-0.9 0.6-0.3 0.8 0 0.9 0.1 0.4-0.1 0.3-0.3 0.3-0.6 0.2-0.2 0.6-0.3 0.1-0.1 0-0.2-0.1-0.2-0.1-0.2 0-0.2 0-0.3 0-0.2 0.2-0.4 0.5-0.7 0.2-0.4 0.1-0.5-0.3-1-0.6-0.7-0.8-0.5-0.7-0.6-0.5-0.9-0.9-4.3 0-0.8 0-0.8 0.2-0.9 0-0.1 0-0.1-0.1-0.5-0.2-0.5 0-0.5 0.3-0.4 0-0.2 0-0.1 0-0.2 0-0.1-0.6-0.8-0.2-0.4-0.1-0.6-0.2-0.5-0.5-1-0.2-1.1-0.8-1.6-1-3.4-0.2-1.2 0-0.6 0.2-0.3 0.2-0.3 0.3-0.4 0.5-0.3 0.1-0.1 0-0.3-0.2-0.5-0.1-0.3 0.2-0.5 0.3-1 0-0.5-0.1-0.6-0.2-0.5-0.7-0.9-0.5-1.2-0.3-0.7 0-0.6 0.2-0.5 0.8-1 0.3-0.6 0-0.5-0.1-0.5 0-0.5 0.2-0.6 0.3-0.3 0.7-0.5-0.7-0.6-0.3-0.4-0.2-1.3-0.1-0.3-0.7-0.4-0.4-0.4 0.1 0 0.4 0.1 0.4 0 0.4-0.2 0.2-0.4-0.1-0.4-0.6-0.4 0-0.2 0.1-0.2 0-0.2 0.1-0.2 0-0.1 0-0.1-0.1-0.3-0.2-0.1-0.2-0.1-0.2-0.1-0.1-0.3 0-0.2 0.2-0.2 0.1-0.2 0.1-0.2 0.5-1.4 0.1-0.5 0-1 0.1-0.4 0.3-0.3 0.4 0 0.4 0.3 0.4 0.2 0.3-0.2 0-0.4-0.3-1.8 0.1-1 0.1-1.1 0.4-1 0.3-0.1 0.4 0 0.4 0.1 0.4 0.1 0.4-0.1 0.3-0.3 0.3-0.4 0.1-0.9 0.2-0.4 0.4-0.1 0.4 0.1 0.8 0.4 0.2 0.1 0.1 0.1 0.2 0.1 1.8-0.5 0.2-0.3 0-0.6-0.1-0.3-0.3-0.5-0.1-0.3 0.1-0.3 0.3-0.6 0.1-0.2-0.1-0.2 0-0.3 0.1-0.2 0.1-0.1 0.2-0.1 0.4-0.1 0.3-0.2 0.8-1.1 0.1 0 0.2-0.1 0.1-0.1 0-0.2 0.1-0.3 0-0.2 0.2-0.5 0.2-0.1 0.2-0.1 0.5 0 1 0.6 0.5 0 0.4-0.3 0.4-0.4 0.1-0.2z" id="ARQ" name="Neuquén">
  </path>
  <path d="M331.2 543.2l0.2 0 10.9-0.1 37.9 0.1 2.4 0 17.7 0 7.3 0 24.7-0.1 17.7 0.1 6.2 0 12.5 0 1.4 0.2 0.1 0.1 1.1 2.3 0.6 0.9 0.8 0.8 1.6 1.1 0.3 0 0.4 0 0.3 0 0.1 0.1 0.4 0.3 0.5 0.3 0.5 0.2 0.4 0.1 1.1 0 0.4 0.1 0.4 0.4 0.5 0.3 0.5-0.1 0.5-0.2 0.5-0.1 0.5 0 0.3 0.1 0.2 0.2 0.3 0.4 0.1 0.2-0.6 0.2-0.4 0.4-1.6 2.3-0.1 0.3-0.2 0.9 0.1 0.2 0.6 0.2 1.7-0.2 0.9 0.5 0.7-0.1 0.7-0.1 0.4-0.1 0.5-0.3 0.3-0.1 3.9 0.3 0.5-0.2 0.2-0.4 0.1-0.1 0.6-0.6 0.2-0.2 0-0.2 0-0.5 0-0.2-0.1-0.1-0.1-0.2 0.1-0.1 0.1-0.1 0.1 0 0-0.2 0-0.3-0.2-0.6-0.1-0.3-0.1-0.3-0.5-0.2-0.9-0.1-2.3 0.1-1.1-0.1-0.9-0.6 0.7-0.4 3-0.4 2.6-1.4 1.6-1.3 1.8-0.8 1.3-0.4 0.9 0.2 0.7 0.8 0.5 0.8 0.6 1.7 0.1 0.5 0.1 0.5 0.4 0.3 0.6 0.6 0.5 1 0.2 1.2-0.2 2.8 0.4 4.3-0.3 1.1-0.5 1.2-0.3 1.1 0.2 1-1 1.5-1.4 0.6-4.2 1-1.3 0-0.5 0.1-0.9 0.4-0.8 0.2-0.6-0.5-0.5-0.6-0.7-1.1-0.4-0.4-0.4-0.2-0.3-0.3 0-0.6 0.1-0.7 0.2-0.3 0.3-1.8 0.3-0.2 0.2-0.1-0.1-0.2-0.5-0.4-0.1-0.1-0.3-0.2-0.1-0.1-0.1-0.1-0.1-0.1-0.7-0.4-0.3-0.3-0.1-0.6-0.2-0.3-0.5-0.4-0.9-0.4-1-0.2-2.2-0.1-1.5 0.3-0.5 0.2-0.5 0.2-0.5 0.5-0.7 0.1-0.2 0.2-0.2 0.1-0.9 1.3-0.4 0.4-0.4 0.1-1 0.1-1 0.3-0.5 0.4-0.3 0.4-0.2 0.5-0.2 0.6-0.7 0.7-0.1 0.4 0.1 0.7 0.3 0.4 0.9 0.2 0.6 0.5 1.3 0.5 2.6 1.2 0.7 0.5 0.8 0.8 0.4 0.3 0.7 0.1 0.4 0.3 0.3 0.1 0.3-0.1 0.5-0.1 0.5 0 0.2 0 0.2 0.1 0.3 0.3 0.4 0.3 0.2 0.1 0.4 0.3 0.5 0 1.7-0.7 0.2 0 0 0.1 0.3 0.7-0.1 0.4-0.4 0.4-2.5 1.7-2.4 1-4.2 1.2-3.7 2.7-0.6 0.8-0.4 0.4-0.5 0.3-0.3 0.2-0.2 0.6 0 0.5 0.1 0.5 0.1 0.6-0.2 0.5-0.3 0.3-0.4 0.3-1.7 1.8-0.7 1.4-0.4 0.5-1.1 1-0.2 0.2-0.8 1.4-0.1 0.3-0.3 0.5-0.1 0.2 0.1 1.7 0.1 0.4 0.4 1-0.1 0.3-0.1 0.6 0 0.6 0.1 0.2 0.3 0.2 0.2 0.5 0.1 0.6 0.2 0.4 0 0.4 0 1.1 0 0.4 0.3 0.1 0.4-0.1 0.2 0.3-0.5 0.4 0.2 0.6 0 0.5 0.5 0.3 0.7-0.1-0.5 0.5-0.4 0.5-0.2 0.4 0.1 0.5 0 0.4 0.3 0.1 0.1 0.6-0.3 0.1-0.7 0.2-0.4 0.2-0.3 0.3-0.2 1 0 0.7 0 0.4 0.3 0.5 0.2 0.2 0.1 0.1 0.2 0.2-0.1 0.3 0.1 0.2 0.1 0.3 0.2 0.2-0.1 0.2 0 0.2 0.3 0.4 0.3 0 0.2 0.1 0 0.5 0.1 0.3-0.3 0.1-0.1 0.3 0 0.2-0.3 0-0.2 0-0.1 0.2-0.1 0.3-0.2 0.1-0.2 0.1 0.2 0.2 0 0.1-0.2 0.1 0.1 0.1-0.1 0.1-0.2 0-0.2-0.2-0.1 0.1 0 0.2 0.1 0.1 0 0.2-0.2 0-0.1 0.2-0.1 0-0.1 0.2 0.1 0.1 0.2 0.1 0.1 0.1 0 0.2-0.1 0.2-0.1 0.1 0.2 0.2 0.1 0 0.1-0.1 0.1 0 0.3 0.1 0 0.1-0.1 0.2 0 0.1 0.2 0.1 0 0.1-0.2 0.1-0.3-0.1-0.1 0.1-0.1 0.2-0.1 0.2-0.1 0 0-0.2 0-0.3-0.1-0.2-0.2 0-0.3 0 0 0.2-0.2 0-0.1 0-0.2 0 0 0.2 0.1 0.2 0.2 0.2 0 0.1-0.2 0.1-0.2 0-0.2 0.1-0.1 0.2 0.1 0.2 0.2 0.2 0.2 0 0.1 0.2 0.2 0-0.1 0.2-0.2 0.2-0.1 0 0-0.3-0.2 0-0.1 0.1-0.1 0.2 0 0.2-0.1-0.1-0.2-0.1 0-0.3-0.2-0.1-0.1 0.1 0-0.1-0.1-0.1-0.2 0.1-0.3 0.1-0.2 0-0.1 0.2 0 0.2 0.1 0.3-0.3 0-0.1 0.1-0.4 0-0.9 0.5-0.7 0.8-0.4-0.2-1 0.8-0.3 0.4-0.2 0.4-0.2 0.2-0.1 0.3-0.3 0.6 0.1 0.8 0 0.5-0.1 0.4-0.1 0.2-0.3 0.1-0.2 0.2 0 0.6 0.2 0.1-0.1 0.1-0.1 0.3 0.2 0.7 0.4 0.1 0.3 0 0 0.1 0.2 0 0.1 0.1 0.1 0.2 0.3 0 0.3-0.1 0.4 0.1 0.4 0.3 0.5-0.1 0.4 0.5 0.4 0.1 0.3 0.5-0.3 0-0.3 0.4-0.2 0.1-0.1 0.2-0.2 0.1-0.3-0.1-0.2 0.3-0.2 0.2 0.1 0.3 0.3 0.3 0.1 0.4-0.4-0.1-0.2-0.2-0.2 0.3 0.1 0.1 0.3 0.5-0.9 0.5-0.4-0.1-0.4 0.1-0.1 0.5-1-0.8-0.3-0.4-0.7 0.2-0.4 0-0.3 0.3-0.2-0.1 0-0.6-0.3-0.3-0.3 0-0.3 0-0.4 0.1 0 0.5 0.1 0.4-0.5 0-0.5 0.3-0.6-0.2-0.5-0.6-0.6-0.6-0.6 0.1-1.3-0.5-1.2 0.3-0.7-0.2-0.4 0.7-0.8 0.7-0.5 0.5-0.4-0.3-0.3 0-0.4-0.1-0.3 0-0.4 0.1-0.1 0.3-0.4-0.1-0.2 0.3-1.3 0.4-0.6 0.3-0.6 0.7 0 0.6 1 0.3 0.4 0.2-0.4 0.6-2-0.8-0.3-0.1 0 0.8 0.9 0.3 0.4 0.5 0 0.7-0.8 0-2.2 0-2.4 0.4-1.8 0.2-1.2 0.6-0.7 0.6-1 0.8-1.1 1.3-0.7 1.3-0.7 1-0.7 1-0.7 1.2-0.5 0.8-1 1-0.4 0.8-0.3 0.4-0.5 0.3-0.3 0.6-0.2 0.8 0 0.9 0 0.5 0.4 0.3-0.1 0.3-0.1 0.2-0.4 0 0 0.5-0.1 0.3 0 0.2 0.2 0.3-0.1 0.3-0.3 0.2-0.4-0.1-0.6 0.5-0.3 0.3-0.3 0.2-0.4 1.1-0.6 0.5-0.2 0.6-0.5 0.5-0.2 0.5 0.3 0.8-0.5 0.2-0.4 0.8-0.1 0.2-0.1 0-16.2 0-26.2 0-41.7 0-0.1 0 0.8-0.9-0.2-1.1-0.4-0.8-0.5-0.6-0.7-0.5-0.9-0.3-0.3-0.3-0.2-0.5 0.1-0.5 0.2-0.4 0.1-0.4-0.3-0.6-0.6-0.5-0.2-0.3 0-0.5 0-0.2 0.4-0.6 0-0.2 0-0.2-0.1-0.2 0-0.2 0-0.5 0.1-0.3 0.3-0.8 0.2-0.1 0.1-0.2 0.1-0.1 0.1-0.2-0.1-0.3-0.3-0.3-0.1-0.1 0.4-0.7 0.7-0.5 0.9-0.2 0.6-0.1 1.7 0.1 0.7-0.2 0.8-0.6 0.2-0.4-0.1-0.5-0.4-0.8-0.2-0.6 0.1-0.3 2-0.9 0.4-0.2 0.3-0.4 0.5-0.8 0.4-0.3 0.4-0.6-0.1-1-0.4-1-0.5-0.7-0.7-0.7-1.1-0.8-0.8-1-0.2-0.4-0.4-1.3-0.8-1.8-0.7-0.8-0.7-0.1-0.8 0.1-0.9-0.1-0.3-0.3-0.5-0.7-0.4-0.2-0.4-0.2-0.5 0.1-0.5 0.2-0.4 0.2-0.8 0.1-0.9-0.4-0.8-0.5-0.8-0.3-0.9 0-0.4-0.1-0.2-0.5 0.1-0.9 0-0.5-0.3-1.6 0.3-0.6 0.6-0.2 0.8 0.3 0.4 0.2 2.8 0.5 0.5 0 0.3-0.3 0.3-0.4 0.3-0.2 0.5-0.1 0.5 0.1 1.4 0.6 0.8 0 1.9-0.8 0.9-0.3 0.8 0.3 1.6 1.2 0.9 0.3 0.8-0.2 0.7-0.6 0.6-0.8 0.1-1.1-0.2-1.1 0-0.4 0.1-0.6 0.5-0.9 0.3-0.5 0.2-0.2 0.4 0 0.4-0.1 0.4-0.3 0.2-0.6-0.1-0.5-0.1-0.3-0.3-0.3-0.2-0.4-0.2-0.5 0-0.4-0.2-0.4-0.3-0.4-0.5-0.3-0.5-0.1-1.1-0.1-3.1-0.6-4.2 0-1.1-0.2-0.9 0-0.9 0.3-0.8 0-0.8-0.8-0.1-0.5 0.3-0.3 0.5-0.2 0.3-0.2 0.1-0.6-0.1-0.4-0.3-0.4-0.1-0.5 0-0.5 0.5-0.9 0-0.5-0.1-0.5-0.7-1.2-0.3-1.1 0.5-0.4 0.8-0.2 0.7-0.6 0.3-0.6 1.6-2.4 0.2-0.6 0-0.4-1.1-1.9-0.3-0.4-0.2-0.1-0.4-0.2-0.1-0.2 0-0.3 0-0.3 0.1-0.2 0.1-0.2-0.1-0.7-0.1 0-0.3 0.2-0.4 0.1-0.4-0.2-0.1-0.4 0.1-0.6 0.2-0.4 0.4-0.2 0.9-0.3 0.4-0.3 0.3-0.3 0.1-0.4-0.1-1.7-0.1-0.3-0.2-0.2-0.9-0.7-0.1-0.1-0.1-0.2-0.1-0.1-0.2-0.2-0.2-0.2-0.5 0-0.5 0-0.5-0.1-0.2-0.4 0.1-0.2 0.4-0.5 0-0.1 0-0.6-0.2-0.4-0.4-0.3-0.4-0.1-0.2 0.1-0.2 0.1-0.2 0-0.2-0.1-0.2-0.2 0.1-0.2 0.2-0.1 0.1-0.2-0.1-0.8 0-0.2 0.1-0.3 0.2-0.1 0.1-0.1 0.2-0.2 0.1-0.2 0-0.9 0.1-0.2 0.3-0.1 0.5 0 0.8-0.4 0.4-0.1 0.9 0.2 0.2-0.4 0.1-0.5 0-0.5-0.1-0.2-0.1-0.5 0-0.2 0-0.3 0.2-0.5 0.1-0.2-0.2-0.5-0.4-0.4-1.9-0.8-3-0.3-1-0.5-0.8-0.7-0.7-1-0.4-1.3 0.1-1 0.5-1.8 0.1-1-0.1-4.1-0.1-0.4-0.3-1-0.1-0.4 0.2-0.6 0-0.3 0-0.2-0.2-0.4-0.1-0.2 0.1-1 0.4-0.8 0.7-0.5 1-0.6 0.1-0.3-0.2-0.3-0.6-1 0-0.3 0.3-1.5-0.2-0.6-1-1-0.3-0.7 0.2-0.7 0.4-0.6 0.6-0.6 0.4-0.6 0.1-0.8 0.2-0.7 0.7-0.6 0.6 0.1 0.4 0.5 0.2 0.6 0.6 0.3 0.2-0.1 0.2-0.3 0.2-0.3 0.2-0.2 0.2-0.1 1.5-0.3 0.6-0.3 0.5-0.4 0.2-0.6 0-1.4-0.1-0.3-0.4-0.4-0.1-0.2z" id="ARU" name="Chubut">
  </path>
  <path d="M329.1 515.8l0.2 0 2.6 0.2 1.4 0.3 1.6 0 0.7 0.1 4 1.6 1.3 0.1 0.6 0 1.1-0.4 0.6-0.3 0.3-0.2 0.5-0.3 0.2-0.2 0.1-0.1 0.3-0.6 1.3-1.5 0.3-0.5 0.2-0.4 0.1-0.6-0.1-0.6-0.3-0.5-0.3-0.4-0.4-0.3-0.4-0.2-0.4-0.3-0.2-0.4-0.1-0.3 0-0.3 0.1-0.2 0.1-0.3 0.1-0.1 0.4-0.3 0.1-0.2 0.1-0.1 0.1-0.4 0.2-0.1 0.3-0.2 0.7-0.2 0.3-0.2 0-0.2 0.1-0.4 0.1-0.2 0.1-0.3 0.2-0.2 0.2-0.3 0.2-0.1 1-0.5 0.6-0.2 0.5 0 0-0.1 0.3-0.2 0.5-0.4 0.4-0.1 0.3 0 0.7 0.1 0.3 0.1 0.6 0.1 0.8-0.2 0.7-0.4 0.6-0.5 0.9-0.9 0.3-0.2 0.5-0.1 0.4 0.1 0.4 0.4 0.4 0.4 0.7 0.6 0.8 0 1.7-0.6 1.7 0.1 0.6-0.3 0.2-0.5 0.2-1.2 0.3-0.3 0.1 0 0.5 0 0.2 0 0.2-0.1 0.3-0.2 0.2-0.1 0.2-0.3 0.2-0.5 0.1-0.7 0-1.4 0.1-0.6 0.8-2.1 0.4-0.8 0.2-0.5 0-0.3-0.1-0.8 0.1-0.3 0.2-0.6 0-0.3 0.2-1.6 0.1-0.5 0.3-0.7 0.1-0.3 0-0.5 0-0.2 0.1-0.2 0.3-0.4 0.5-0.4 5-3 0.4-0.1 0.6 0 1.9 0.2 0.5-0.1 0.5-0.4 1.5-1.5 0.8-0.6 0.4-0.4 1.1-1.6 0.1-0.3 0-0.1 0.5-0.7 0.3-0.5 0.4-0.3 0.7-0.4 0.5-0.2 0.1 0 1-0.8 0.3-0.1 0.2-0.1 0.7 0 0.5 0 0.2-0.1 0.5-0.3 1-0.5 0.2-0.1 0.2-0.2 0.2-0.4 0.8-1.4 0.1-0.2 0.2-0.2 1.1-0.7 0.1-0.1 0.1-0.3 0.4-1.4 0.2-0.3 0.6-0.5 0.2-0.3 0.2-0.4 0.9-0.4 0.4-0.2 0.3-0.4 0.3-0.3 0.6-1.2 0.5-0.7 0.6-0.6 0.7-0.4 0.7-0.1 0.6-0.4 1.4-1.7 0.7-0.4 0.3-0.1 0.9-0.8 0.2 0 0.5 0.6 0.6 0.3 0.3-0.1 0.2-0.1 0.4-0.1 0.3 0 1 0.4 0.7 0 2.2-0.6-0.1 0-0.3-0.2-0.1-0.3 0-0.3-0.1-0.5-0.2-0.6-2.7-4.3-1-1.2-0.4-0.4-0.1-0.6 0-24.7 0.1-4.1 0-0.2 8.2 1.1 0.9 0.5 0.6 0.5 0.6 0.8 0.5 0.9 0.3 0.8 0 1.2-0.3 1-0.5 0.7-1.4 1-0.6 0.6-0.5 0.9-0.1 1.3 0.1 0.5 0.1 0.5 0.2 0.6 0.2 0.2 0.2 0 0.3 0.3 0.2 0 0.6-0.2 0.2 0 0.8 0.4 0.6 0.6 1.1 2.4 0.6 0.8 0.7 0.7 0.8 0.4 1.5-0.1 0.6-0.3 1.5 0.2 0.6-0.2 0.9-0.6 1.8-0.3 0.4 0 0.5 0.2 0.2 0.4 0.1 0.4 0 0.6 0 0.3 0.5 1.4 0.8 1.1 0.3 0.3 0.3 0.4 0.1 0.2 0.2 0 2.1 1.1 0.9 0.2 0.7 0.5 0.4 0.2 1 0.1 0.8 0.5 0.2 0.1 0.1 0.1 0.4 0.3 0.2 0.1 0.9 0.2 0.7 0.4 0.7 0.6 0.5 0.7 0.2 0.8 0.2 1.3 0.2 0.4 0.5 0.2 0.6 0 2.4 0.7 0.9 0 2.8-0.5 5.3 0.7 0.2 0 0.4 0.3 0.6 0.1 0.7 0.3 0.8 0.1 0.3 0.1 0.2 0.1 0.4 0.4 0.2 0 0.9 0 0.3 0.1 0.2 0.2 0.2 0.2 0.2 0.1 0.4 0 0.4-0.2 0.5-0.3 0.3-0.3 0.4-0.3 0.6 0 1.1 0.2 1.8 0.7 0.8 0.6 0.3 0.1 0.3 0 0.9-0.4 1 0.1 3.1-0.6 2.8 0 0.2 0 0.5 0.4 1.5-0.2 0.7 0.2 0.4-0.2 5.7 1.1 1.5 0 6.7 2.6 1.5 1 0.4 0.2 1 0.1 0.3 0.3 1.8 2.2 0.4 0.2 1.4 0.3 0.8 0.5 0.3 0.2 0.3 0.3 0.5 0.9 0.4 0.5 0.7 0.3 2.7 1.9 0.6 0.6 0.8 0.3 1.8 0.2 0.1 14.7 0 14.7 0 7 0 1 4.2 0.6 1.3 0.5 0.3 0.2 1.7 1.5 0.9 1.2 0.2 0.2 1 0.8 1.3 1.3 0.2 0.4 0.8 1.8 0.2 0.6 0 0.1-0.2 0-0.2 0.3-0.6 0.5-0.3 0.4-1.5 0.4-2.4 1.3-1 0.2-4.5-0.2-0.9 0.3-0.5 0-1.9-0.1-3 0.1-3.3 0-0.9-0.2-0.9-0.5-2-2-1-0.5-0.8 0.1-0.2-0.2-0.1-0.2 0.1-0.3 0.2-0.4-0.2-0.2-0.5 0.1-0.6 0.3-0.4 0.1-0.8-0.2-5.1-2.7-2.8-0.8-1.9-1-1.9-0.4-1-0.1-1.4 0.1-0.7 0-0.5-0.2 0-0.4 0.4-0.3 0.5-0.2 0.4 0.1-0.1 0.5 0.1 0 0.2-0.1 0.1-0.1 1.3 0 0.3-0.1 0.2-0.1-0.1-0.6-0.6-0.2-0.4-0.3 0.6-0.6-0.5-0.4-2-0.4-1.1 0.1-0.8 0.3-0.2 0.2 0.4 0.1 0.7-0.2 0.4 0.1-0.3 0.4 0.1 0.3 0.2 0.2 0.2 0.2-2.1-0.1-0.3 0.2-0.3 0.3-1.7 1.4-0.2 0.2 0 0.2 0 0.7-0.1 0.2-0.3 0.5-0.2 0.6-0.2 0.6-0.1 0.7 0 1.1 0.6 4.7 0.8 3.2 0.1 0.9 0.5 1.5 0.1 0.9 0.3 0.9 1.1 1.2 0.3 0.9 0 0.8-0.2 0.9-0.2 0.8-0.3 0.6-0.2 0.8 0.2 1 0.6 1.5 0 1-0.4 1.2-0.9 2-0.3 1.2 0.1 1 0.3 0.7-0.1-0.1-1.4-0.2-12.5 0-6.2 0-17.7-0.1-24.7 0.1-7.3 0-17.7 0-2.4 0-37.9-0.1-10.9 0.1-0.2 0-0.3-0.4 0-0.4 0.1-0.4 0-0.5-0.4-2-0.4-0.8-0.5-0.7-0.4-0.8 0-1-0.2-0.9-1.2-1.8 0-0.8 0.3-0.4 0.7-0.4 0.3-0.3 0.2-0.4-0.1-0.4-0.2-0.3-0.3-0.4-0.1-0.5 0-0.3 0.1-0.8 0.1-0.6 0-0.4-0.1-0.3-0.2-0.5-0.2-1.1 0-0.8 0.5-1.9 0.1-0.5-0.1-0.5-0.2-0.9 0-0.5 0.1-0.2 0.2-0.2 0.2-0.5 0-0.9 0.2-1 0-0.6-0.3-1 0-0.3z" id="ARR" name="Río Negro">
  </path>
  <path d="M333.6 658.4l0.1 0 41.7 0 26.2 0 16.2 0 0.1 0-0.7 2.2-0.1 0.8-0.1 0.9 0 1 1 4.7 0.7 2.4 0.5 1.1 2 3.9 1.2 1.2 0.6 0.6 1 0.3 0.6 0.2 0.2 0.3 0.3 0.5 0.8 0.6 0.9 0.2 0.4 0.3 0.3 0.9 0.7 0.6 0.8 1.2 0.2 0.7 0.3 0.1 0.2 0 0.2 0.1 0.2 0.4 0.2 0.1 0.2 0.2 1.9 2.1 1.2 1.9 0.8 0.8 1.8 0.9 0.8 0 0.6 0.5 0.9-0.4 0.4 0.3 0.4-0.1 0.4-0.1 0.5-0.1 0.3 0.2 0.7 0.4 0.3 0.1 1.2-0.1 0.3 0.1 0.2 0.1 1.1 0.2 2.2 0.5 2.4-0.2 1.1-0.5 0.6-0.1 0.5 0.1 1.2 0.9 0.8 0 0.5 0.5 0.2 0.8 0.5 0.5 0.4 0.4 0.2 0.2 1 0.9-0.2 0.6 0.4 1.7 0.3 0.9 0.2 1-0.3 2.1-0.2 3-0.5 1.8-0.6 2-1.2 3.4-0.4 0.2-0.6 0.1-0.5-0.2-1.1-0.1-1.2-0.1-0.6 0.6-0.7 0.9-0.6 0.4-0.5 0.2-1.3 0.7-1.3 0.9-0.5 0.1-1.6 0-0.3 0 1 0.4 0.8-0.1 1.6-0.9 0.5-0.1 1.2-0.4 1.9-1.1 0.6-0.6 1-0.2 0.9 0.1 0.6 0.1 0.3 0.4 0.4 1.6 0.3 1.3 0.5 0.6 0.8 0.2 0.6 0.2-0.6 0.4-0.1 0.4 0.4 0.2 0.3 0.2-0.5 0.1-0.6 0.2-0.5 0.1-0.2-0.6-1.1-0.3-0.5 0.2-0.4 0.7-0.2 0.6 0.5 0.3-0.1 0.7-0.1 0.2-0.2 0.2 0 0.3-0.4 0.3 0.1 0.3 0.5 0.5 0.8 0.2 0.1 0.5-0.4 0.6-0.6 0.1-0.2-0.4-0.4-0.2-0.3 0.3-0.6 0-0.9 0.1-0.6 0.2-0.4 0.2-0.5 0.4-0.2 0.7-0.2 0.5-0.2 0.3-0.8 0.4-0.8 0.3-0.5 1.1-0.8 0.3-0.3 0.4-0.4 0.6-0.4 1.1 0.3 1-0.3 0.1-0.7-0.1-0.7-0.1-0.5 0-0.1 0.2-0.4 0.3 0.1 0.4-0.1 0.7-0.6 0.4-0.9 0.3-0.7 0-1.5 0.3-0.9 0.7-1.2 0.6-0.5 0.6-0.7 0.6-0.6 0.8-0.4 0.3-0.1 0.7-0.1 0.6-0.5 0.2-0.5 0.3-1.5 0.2-1.2 1-1.4 1-0.5 0.5-0.2 1.6-0.8 0.9-0.2 0.8-0.1 0.7-1 0.9-1.5 0.6-1.8 1.2-3.1 3.5-0.4 1-0.3 1.2-0.1 0.7-0.4 0.4-0.4 0.3 0 0.8 0.4 0.2 0.1 0.6-0.3 0.2-0.2 0.1-0.3 0.2-0.2 0.3 0 0.3-0.2 0.3-0.2 0.8-0.5 0.6-0.6 0.2 0.2 0.3 0.2 0.3 0.1 0.3-0.1 0.4-0.3 0.1-0.3 0.3-0.4 0.2 0.3 0.3 0 0.4-0.6 0.6-1.2 0.1 0 0.2 0.4 0.2 0.4 0 1.4 0 0.6-0.6 0.3-1.1 0-0.9 0.3-0.4 0.1-0.9 0.4-0.5 0.1-0.2 0.3 0.2 0.3 0.4 0 0.6 0 1.3-0.9 1.7-0.1 0.5-0.4 2.2-0.5 2.3-0.1 0.9 0 1.4-0.1 0.7-0.1 1.3 0.1 0.5-0.4 3.1-0.7 2.1-0.2 0.8-0.3 0.6-0.1 0.5-0.1 0.1-0.7 1.4-1.3 1.4-1.8 1.5-2 1.4-1.9 0.9-1.8 0.3-1.5-0.1-0.3-0.1-0.2-0.2-0.5-0.9-0.5-0.3-0.4-0.7-0.3-0.7-0.2-0.8-0.4-0.8-0.5-0.7-0.7-0.6-0.4-0.8-0.1-0.7-0.5-1.1-0.5-0.8-1-1.9-0.2-0.6-0.4-0.4-0.5-0.3-0.5-0.2-0.4 0 1.3 0.9 0.3 0.3 0.1 0.5 0.6 1.2 0.7 1.3 0.4 1.4 0 0.8-0.4 0.3-0.7 0.5-0.4 0.2-0.5 0.3-0.6 0.1-0.9-0.2-1.2 0.1-1.5-0.2-0.8 0.6-0.7 0.3-0.6 0-0.8 0.6 0 0.2 0.1 0 0.3 0 0.1 0 0.4 0 1.2-0.1 0.7-0.6 0.5-0.3 0.3-0.1 0.3 0 0.5 0.1 0.7-0.1 1.1 0.3 0.9 0.1 0.7-0.3 0.8-0.4 0.3 0 0.4 0.1 0.1 0.2 0.2 0.6 0.4 0.3 0.3 0.2 0 0.3 0 0.5 0.1 0.7 0.4 0.6 0.6 0.6 0.4 0.3 0.5 0.1 0.4 0.2 0.2 0.4 0.6 0.1 0.3 0.5-0.3 0.7-0.7 0.3-0.4 0.4-0.5 0.3-3.6 1.7-2.5 1.2-0.7-0.1-0.5 0.5 0 0.5-0.7 0.2-0.3 0-0.3-0.1-0.4 0.3-0.1 0.7-0.4 0.3-1 1.4-0.6 0.8-0.3 0.7-0.4 0.9-0.7 1.2-0.3 0.9-0.4 0.6 0 1.4-0.9 2.5-0.4 1.3-0.2 0.7 0.1 0.6 0.3 0.8 0.1 2 0 1.1-0.2 0.8-0.5 0.4-1 0.7-1.1 1.2-1.8 1.5-0.9 1-0.4 1.1 0.6-0.6 1.2-1.1 0.7-0.5 1.3-0.8 0.6-0.4 0.6 0 0.2 0.6 0 0.6 0.3 1.4 0.4 2.5 0.4 1.7 0.1 1 0.3 0.6 0.2 1.4 0.3 1.5 2.1 5.9 0.1 0.8 0.1 0.6-0.2 0.6-0.4 0.4-0.4-0.1-0.4-0.2-0.6 0-0.4 0.3-0.7 0.9-0.4 0.2-0.5 0-0.6-0.2-2.3-1.3-1.5-0.1-0.4 0-0.2 0.1-0.7 0.4-1.1 0.1-0.5 0.2-1 0.8-1 0.4-0.5 0.3 4.6-1.1 0.9-0.1 1 0.1 2.2 0.9 0.9 0.5-0.2 0.6-1.1 0.9 0 0.2 0.4 0 0.4-0.1 1.7-1 0.9-0.8 0.5-0.5 0.6-0.1 0.6 0.3 0.7 0.9 1.3 3.8 1 1.5 1.5 3.7 1.4 3 3.4 5.4 2.6 3.7 0.6 1.1 0.3 0.6-0.2 0.5-0.6 0.6-0.3 0.5-0.2 0.5-0.4 0.2-0.1-0.4 0.1-0.5-0.3-0.6 0-1.3-0.1-0.3-0.5-0.2-1.6-0.4-0.3-0.1-0.7-0.4-0.4-0.2-4.1-0.6-0.8-0.4-3-1.8-4.3-1.4-5.6-0.2-3.7-1.6-3.6-1.5-2.4-1.1-1.7 0-4.7-0.1-4.6-0.1-4.7 0-4.7-0.1-4.7-0.1-4.6 0-4.7-0.1-4.7-0.1-1.6 0-1-0.6 0.1-1.5 0.2-1-0.2-1-0.4-0.8-0.6-0.5-1.3-1.7-1.5-1.3-0.9-0.6-1.9-0.7-0.5-0.3-0.2-0.7-0.2-1.8-0.2-0.6-0.4-0.5-0.5-0.1-0.6 0-0.5-0.1-0.4-0.8 0.5-1 1.5-1.6 0.1-0.2-0.1-0.3 0-0.4 0-0.3 0.1-0.3 0.1-0.2 0.1-0.3 0.2-0.2 0.1-0.6 0-1.9 0-0.7 0.2-0.5 0.9-1.3 0.2-0.4 0-0.5-0.3-0.5-1.6-1.1-0.6-0.7-0.5-1.2 0-0.6 0.2-0.5 0.5-0.8 0.4-0.7 0.3-0.3 0.3-0.2 0.6-0.1 0.3-0.7 0.3-1.5 0.2-2.8-0.2-1.3-0.4-0.8-0.6-0.8-0.5-0.9-0.2-0.6 0-0.4 0.1-0.5 0.8-1.6 0-0.5-0.4-0.3-0.5-0.1-0.8-0.6-2.5-0.6-0.9 0.5-1.4 1.6-1 0.1-0.4-0.3-1-1.1-0.5-0.3-0.4 0.1-2.6 1.5-0.8 0.7-1.4 1.6-0.9 0.7-0.9 0.4-0.9 0-0.8-0.6-0.2-1.1 0-1.3-0.1-1.2-0.2-0.5-0.9-1.2-0.3-0.5-0.1-0.5 0-1.9-0.2-1.8-0.1-0.6 0.1-1.3 0-0.7-0.2-1-0.4-1.1-0.4-1-0.5-0.8-0.4-0.4-0.8-0.5-2.6-2.4-0.3-0.9 0.3-1 1-2 0-0.4-0.1-0.6-0.3-0.4-1.1-1-0.4-0.5 0.1-0.4 0.3-0.3 0.2-0.5 0.1-0.6 0-0.4 0.1-0.5 1.1-1.1 0.4-0.8-0.1-0.9 5.6-2.5 1.3-2 1.5-2.1 0.1-2.5-0.6-1.7-0.7-0.9 0.2-2.6 0.2-1.2 0-0.2-1.3-0.3-0.2-0.2-0.2-0.4-0.1-0.8 0.3-0.8 1.3-1.7 0.2-0.4 0.1-0.4 0-0.5 0.1-0.4 0.2-0.7 1.3-1.9 0.2-0.3 0.8-0.8 1-0.4 2-0.2 0.9-0.4 0.8-0.6 1.5-1.6 1.1-1.4 0.5-0.9 0.2-0.9 0.1-1.2-0.1-3.4-0.5-1.7-0.2-1.6 0.8-1.8 0.8-0.6 0.9-0.5 1.3-0.5 0.3-0.3 0.6-0.8 0.3-0.5 0.1-0.1 0.2-0.1 0.3 0 0.6 0.2 0.3 0 0.2-0.5-0.2-0.5-0.3-0.6-0.2-0.4 0.1-0.5 0.2-1.2 0.1-0.6-0.5-3.7-0.2-0.7-0.7-0.2-0.3-0.2-0.1-0.2-0.1-0.2 0-0.3-0.1-0.3-0.3-0.4-0.4-0.2-0.4-0.1-0.4-0.2-0.7-0.7-0.5-0.8-0.2-1 0.4-1 0.5-0.9 0.5-2.2 0.4-1 2-3.5 0.2-0.5 0.1-0.5 0.1-0.5 0.1-0.6 0.4-1.7-0.1-0.4-0.3-0.3-0.4-0.2-0.3-0.2 0.2-0.7 0.3-0.5 0.4-0.3 0.8-0.3 0.5-0.1 1.1 0.2 0.5-0.1 0.3-0.3 0.6-0.8 1.8-2.1 0.4-0.8 0.2-0.5-0.1-0.3-0.1-0.3-0.1-0.5-0.1-0.5 0.1-0.4 0.2-0.2 0.5 0 1.3 0.9 0.7 0.2 0.6-0.3 0.4-0.8 0-0.9-0.2-0.8-0.4-0.6-0.6-0.5-1.3-0.8-0.4-0.5 0.1-0.6 1.3-0.9 0.4-0.4-0.2-0.5-0.7-0.6-0.2-0.5 0-0.4 0.3-1.8 0.1-0.2 0.2-0.2 0.1-0.2 0-0.3-0.1-0.2-0.1-0.2-0.1-0.2 0-0.3 0.3-0.5 0.6-0.1 1.1 0 0.4-0.2 0.3-0.3 0.6-0.8 0.3-0.4 1.2-0.7 0.7-0.8 0.1-0.9-0.3-2.2 0-0.5 0.2-0.5 0.1-0.5-0.1-0.5-1.4-3.8-0.2-1.1 0-1.2 0.1-1.3-0.1-0.9-0.4-0.6-1.3-0.8-1-1-0.2-0.1-0.2-0.1-0.1-0.1 0.1-0.3 0.2-0.2 0.2-0.1 1.6-0.2 0.5-0.2 0.4-0.2 0.3-0.4 0.5-0.9 0.2-0.4 1.5-1.7z" id="ARZ" name="Santa Cruz">
  </path>
  <path d="M395.7 948.6l0.2-1.2 0-2 0.2 0.3 0.5 0.9 0.2 0.4 0.4 0.4 0.2 0.3 0.1 0.6-0.4 0.2-1.4 0.1z m0.2-3.7l0.1-9.7 0-9.5 0-9.5 0.1-9.4 0-9.3 0-9.3 0.1-9.2 0-9.2 0.7 0.5 0.2 0.3 0.4 1.1 0.2 0.3 1.3 2 1.4 2.5 0.3 0.5 1.4 1.3 0.7 0.8 0.5 1.1 0.4 1.3 0.8 3.7 0 0.5-0.1 0.6-0.2-0.4-0.2-0.7-0.6-2.5-0.5-0.3-0.4 0.1-0.5 0.2-0.7 0.5-0.6 0.6-1 1.3-1.3 1.2-0.7 1.6-0.2 1.2 0.3 1.3 0.9 1 1.2 1.1 0.8 0 1 0.3 1.4 0.4 2.2-0.2 1.6 1.1 0.4 1.1 0.3 0.6-0.1 1.2 0.1 0.3 0.2 0.7 0.3 1.6 0.1 0.7 1.2 2.3 0.2 0.4 3.9 4.4 1.4 1.1 0.5 0.6 0.1 0.5-0.2 0.5 0.5 0 0.5-0.1 0.6 0.4 1.5 0.8 0.2 0.4-0.6 0.2-0.2 0.6 0.1 0.8 0.2 0.6 5.7 5.1 3.2 2.5 2.4 1.1 1.3 0.9 0.4 0.7 0.8 0.4 2.9 1.3 1.3 1.4 1 2.1 2.1 2 0.5 0.9 0.7 0.4 0.3 0.9 0.7 0.3 0.6 0.1 0.8 0.3 1.9 1.2 7.1 3.6 0.3 0.1 0.6 0.1 0.2 0.1 0.8 0.6 0.2 0.1 1.6 0.1 1.4 0.4 5-0.8 1 0.2 0.6 0 1.5-0.7 3.1 0.5 0.3 0.3-0.2 0.5-0.3 0.5-0.4 0.2-0.2 0.3-0.6 1.9 0.1 0.2 0.1 0.4 0.1 0.2-0.7 0.7-0.2 0.2 0.1 0.4 0.1 0.4 0 0.3-0.4 0.3-0.7 0.6-0.2 0.2-0.5 2.3-0.3 0.2-0.3 0.2-0.2 0.1-0.5-0.1-0.1-0.3 0.1-0.4-0.2-0.5-0.5-0.3-0.7 0-0.5 0.4 0.2 0.7-0.5 0.6-1.7-0.1-0.7 0.2-0.2 0.3-0.1 0.4-0.1 0.3-0.3 0.2-0.4 0.1-0.3 0-0.3-0.3-0.3-0.5 0-0.2 0.1-0.5-0.1-0.3 0-0.2-0.1-0.2-0.3-0.1-0.4 0-0.4 0-0.8 0.3-1.4-0.5-0.5 0.4-1.4-0.4-0.4 0.3 0.3 0.6 0.5 0.5-0.4 0.6-0.5 0.6-1.4 0.4-1.2 0.4-1.6-0.1-2.5 0.1-1.2 0.4 0.1 0.6-0.1 0.5-1.1 0.3-0.5 0.2-1.8 0-1.9-0.7-0.6-0.4-0.5-0.5-0.3-0.5-0.3-0.4-1.9-1.4-0.6-0.2-2.3-0.3-1.8-0.9-6.3-0.4-4.3-0.7-2.6 0.3-5.5-0.7-3-0.6-0.9-0.8-2-0.2-1.1-0.7-0.6-0.2-0.3 0.3 0.1 0.8-0.1 0.3-0.3 0.4-4 0.3-0.5-0.1-0.4-0.3-0.6-1-0.9-1-0.1 0z m98.5-2l0.4 0.2 0.5-0.4 0.4-0.3 0.3 0.5-0.5 0.4-0.2 0.2-0.1 0.3-0.3 0.7-0.1 0.3-0.3 0.1-0.4 0.1-0.3 0.1-1 0.9-0.3 0-0.2-0.1 0.1-0.4 0.4-0.8 0-0.2-0.1-0.5-0.2-0.1-0.3 0.3-0.3 0.3-0.3 0.3-0.3 0.1-0.7 0-0.1-0.1-0.1 0-0.3 0.1-0.1 0.2 0 0.2-0.1 0.2 0 0.1-0.5 0.3-2 0.3-0.1 0.4-0.3 0.2-0.3-0.1-0.2-0.3 0-0.4 0.1-0.5 0.3-0.9-0.4 0.1-0.2 0-0.1 0.2-0.3-0.3-0.3 0.1-0.4 0.4-1.2 0.8-0.2 0.2-0.4 0.5-0.2 0.2-0.3 0.2-0.4 0.1-0.7 0 0-0.1 0.1-0.1 0-0.2 0.1-0.1 0-0.2-0.2 0-0.2 0-0.2 0.2-0.2 0.2 0.1 0.1 0.2 0.2-0.3 0.3-1 0.5-0.2 0.3-0.3 0.6-0.2 0.3-0.4 0.1-1 0-0.3-0.1-0.1-0.3 0.1-0.3 0.2-0.3 0.2-0.3-1.8-1.3 0.1-0.7 0.4-0.4 0.5-0.3 0.2-0.4 0.3-0.4 0.6 0.3 1.1 0.7 0.4-0.1 1.2-0.5 0.4-0.4-1.1-1.2-0.2-0.5 0.5-0.3 0.2 0.2 0.5 0.8 0.3 0.3 0.7 0.2 0.2-0.1 0.4-0.3 0.2-0.1 0.1 0 0.2 0 0.2 0.2 0.1 0.5 0 0.5 0.1 0.2 0.1 0.1 0.3-0.1 0-0.1-0.1-0.3 0-0.2 0-0.6 0-0.5 0-0.5 0.2-0.5 0.2 0 0.3 0.3 0.4 0.3 0.3-0.3 0.1 0.2 0.1 0.1 0.1 0 0.2 0 0.2 0.1 0.7-0.1 0.3 0 0.3 0.3 0.2 0.3 0.3 0.3 0.2 0 0.2-0.4-0.1-0.4 0-0.2 0.3-0.2 0.1 0.1 0.3 0.4 0.2 0 0.2-0.1 0.1-0.2 0.2-0.2 0.2 0 0.2 0.2 0.2 0.8 0.2 0.3 0.3-0.1 0.6-0.5 2.3-0.7 0.6 0.3-0.1 0.2z" id="ARV" name="Tierra del Fuego">
  </path>
  <path d="M568.8 314l1 0.6 2.7 2.8 3.5 2.5 0.4 0.2 0.4 0 1 0.6 0.4 0.2 0.3 0.4 0.8 1.2 0.3 0.3 2.8 1.5 0.7 0.2 0.6-0.2 1.1-0.4 0.9 0.6 0.8 1 1 0.5 1.8 0 0.1 0 0.1-0.3 0.1 0 0.3-0.1 0.2 0 0.1 0 0.2 0.4 0 0.3 0 0.7 0.1 0.2 0.1 0 0.1 0.2 0.1 0.1 0.2 0.1 0.1-0.1 0.1 0 0.1-0.1 0.2 0 0.1 0.1 0.2 0.2 0.1 0.1 0.1 0.2 0.1 0.2 0.2 0 2.1 0 0.6 0.1 0.4 0.2 0.3 0.3 1.5 0.9 1.2 1 0.4 0.2 1 0.3 0.3 0.1 2.2 2 0.8 0.4 1 0 1.9-0.8 1.1-0.2 0 0.1 0.2 0.1 0.2 0 0.5 0.3 0.2 0.1 0.1 0.4 0.1 0.5 0 1.1-0.2 0.8 0 0.3 0.1 0.1 0.2 0.4 0 0.3-0.7 0.8-0.1 0.2-0.1 0.3-0.1 0.2-0.3 0.4-0.4 0.2-0.4 0.2-0.4-0.2-0.1-0.1-0.8 0-0.1 0.1-0.1 0.2-0.1 0.2-0.3 0 1.2 0.7 0.4 0.3 0.6 0.5 0.2 0.5-0.4 0.8-0.2 0.2-0.2 0.3-0.4 0.4 0.1 0.4 0.1 0.3 0.6 0.5 0 0.2 0 0.5 0 0.3-1.3 1.1-0.5 2.2 0.4 1.4 2 1.7 0.8-1.5 0.6-0.6 0.7-0.1 0.5-0.5 0.1-0.3 1.7 1.1 0.9 0.9 0.7 0.3 0.8 0.1 0.5 0.1 0.6 0.4 0.7 0.2 0.6 0.2 0.8 0.9 0.5 0.2 1.2-0.1 0.2 0.1 0.4 0.4 1 0.6 0.9 1 1.5 0.6 1.8 1.3 1.6 0.7 0.8 0.8 0.8 0.6 2 2 0.8 1 0.9 1.1 0.4 0.4 1 1.6 0.8 1.6 0.6 1.1 0.1 0.6-0.3 1.1-0.8 1-0.9 1.2-2 3.2-0.6 0.8-0.3 1-0.1 0.6-0.2 1.1-0.3 0.8 0.2 0.9 0.2 1 0 0.8 0.1 0.2 0.1 0.3 0.3 0.3 0.1 0.3 0.1 0 0.5 1.5 0.1 0.5 0.1 0.2 0.3 0.2 0.4 0.5 0.1 0.1 0.1 0.5 0.3 0.6 2.9 2.8 2.1 1.4 1 0.1 0.4 0.3 0.2 0.3-0.3 0.4 0.1 0.2 0.4-0.4 0.4-0.3 0.9-0.4 0.5-0.1 1.4 0.1-0.3-0.6 0.1-0.3 0.3-0.1 0.4 0.3 0.1 0.3 0.3 1.1 0.1 0.2 0.4 0.5 0 3.2 0.5 1.4 0 0.6 0.1 3.5 0.1 3-0.1 1.1-0.4 0.9-2.1 2.9-2 3.2-2.7 4.8-0.8 1.7-2.3 3.2-0.7 0.8-2.2 2.1-0.9 1.4-0.2 0.2-0.4 0.2-1.6 2.1-0.6 1-0.5 1-0.4 1.1-0.2 1.1-0.1 1.1 0.1 0.2 0.1 0.3 0.1 0.2 0 0.1-0.1 0.3 0 0.1 0 0.8 0 0.3-0.5 0.9-0.7 0.9-2 1.4-2.1 1.2-1.5 1.1-3.2 2-0.7 0.1-0.3 0.1-1.1 1-0.8 0.4-2.5 1-0.7 0.5-0.4 0.2-1.8 0.3-1.6 0.5-1.5 0.9-3.4 0.8-4.3 1.5-1.2 0.8-0.7 0.2-0.7 0.3-5.9 1.2-5.9 1.2-3.4 1.4-0.4 0.1-1.5-0.1-9.4 1.8-3.3 0.6-3.2 0.4-4.3 0.9-2.3-0.1-0.6-0.1-0.2 0-0.3 0-0.2 0.1-0.2 0.3-2 0.5-4-0.6-1.9 0.1-1.3 0.4-0.2 0.2-0.3 0.1-3.3-0.4-0.3-0.3-0.3-0.1-0.2-0.2-0.2-0.1-0.1 0-0.2 0.1-0.1 0-0.1 0.1-0.9 0.2-1-0.1-3.9-1.1-0.7-0.4-0.6-0.6-0.5-0.8-0.3-0.9-0.3-0.5-0.3-0.2-3.3-0.3-0.4-0.2-0.4-0.1-0.5 0.3-0.2 0.4 0.2 0.2-0.1 0.6 0.4 1-0.2 0.5 0.3-0.3 0.3 0 0.2 0.2 0.1 0.3 0 1 0 0.2 0.3 0.2 0.2 0 0.7-0.2 0 0.2-0.1 0.3-0.1 0.4 0 0.4-0.5 0.3-0.2 0.2-0.3 1-0.2 0.5-0.1 0.3-0.2 0.2 0 0.2 0.1 0.2 0.2 0.2 0.1 0.2-0.1 0.5-0.1 0.4 0 0.4 0.2 0.5 0.3 0.5 1 0.7 0.4 0.5-0.4-0.1-0.2 0-0.6-0.3-0.2 0.3 0.1 0.3 0.5 0.2 0.5 0.1 1.6 0.1 0.5 0.1 1.7 0.8 0.8 0.7 0.5 0.7 0 0.3-0.1 0.3-0.1 0.3-0.2 0.2-0.3 0.1-0.2 0-0.1-0.2-0.1-0.1-0.4-0.2-1.2-1.1-0.4-0.5-0.1-0.2-0.1-0.3-0.1-0.1-0.2-0.1-0.1 0.1-0.1 0-0.4-0.1-1.2 0.1 0.1 0.3 0 0.2 0.1 0.3 0.2 0.2 0.2 0 0.3 0 0.3 0 0.1 0.2 0.1 0.6 0.4 0.5 0.9 0.9 0.4 0.2 1 0.3 0.5 0 0.1 0.1 0.1 0.3 0 0.3 0 0.3-0.3 0.3-0.1 0.2-0.1 1.9-0.1 0.3-0.1 0.3-0.5 3.7-0.1 2.4-0.1 0.4-0.1 0-0.7 0.4-0.1 0.2-1.6-0.3-0.4-0.3-0.9-0.7-0.1 0.3 0.1 0.2 0.4 0.6-0.5 0.2-0.1 0.2 0 0.4 0 0.7 0 0.4-0.3 1-0.2 0.9-0.4 1.1-0.1 0.3-0.1 0.2 0.6 1.6-0.1 0.6-0.3 1.1-0.1 0.5-0.1 0.5-0.5 0.3-0.5 0.2-0.4 0.2-0.4 0.3-0.3 0.5-0.3 0.6-0.2 0.5 0.1 0.4 0.7 1.2 0.3 1.6 0.2 0.3 0 0.1 0.3 0.6 0.2 0.2 0.6 0.2 0.7 0.5 0.3 0 0.1 0.2-0.1 0.6 0.1 0.2 0.3 0.2 0.2 0.4 0.3 0.3 0.4-0.4 0.3 1.3 0 0.7-0.3 0.3-1-0.2-0.1-0.1-0.4-0.5-0.2-0.2 0 0.3 0 0.2 0.1 0.2 0.1 0.2 0.2 0.3-0.1 0.2-0.1 0.1 0.2 0.5 0.1 0.1 1.6-1 0.7-0.3 0.6 0-0.2 0.3-0.8 0.6-0.1 0.3-0.1 0.4-0.1 0.8-0.1 0.5-0.1 0.4-0.6 1.2-0.6 1.5-0.5 0.7-3.1 1.7-2.5 1.5-1.4 0.6-0.3 0.3-0.4 0.3-0.4 0.2-0.5 0.1-0.5 0-0.5 0 0-0.1-0.2-0.6-0.8-1.8-0.2-0.4-1.3-1.3-1-0.8-0.2-0.2-0.9-1.2-1.7-1.5-0.3-0.2-1.3-0.5-4.2-0.6 0-1 0-7 0-14.7-0.1-14.7 0.1-13.3 0-14.7-0.1-12.9 0.1-1.2-0.1-11.7 0-11.3 0-5.8 0-5.8 0-10.7 0-0.9 0.1-11.5 0-5.7 0-6.9 0.1-10.7 0.1-4.1 0.7-0.9 10.1 0.1 11.7-0.1 10.9 0 1.1 0 6.8-7.7 5-5.6 3.7-4.2 0.7-1.1-0.2-0.8 0.2-0.6 0.2-0.2 0.2-0.2 0.1 0 0.1-0.1 0.5-0.1 0.3-0.1 0.4 0 0.3 0.1 0.2 0 0.6 0.4 0.3 0.1 2 0 0.1 0.1 0.1 0 0.8 0.6 0.6 0.6 0.2 0.1 0.1 0.1 0.4 0.1 0.5 0.1 0.3-0.1 0.1 0 0.5-0.1 0.5-0.3 0.1-0.3 0.8-1.5 0.1-0.3 0.1-0.6 0.2-1.2 0-0.1 0.1-0.2 0.9-0.6 0.2-0.3 0.1-0.2 0.1-0.1 0-0.2-0.1-0.2 0-0.2 0-0.2 0-0.2 0.1-0.3 0.1-0.2 0-0.1 0.1 0 0.2-0.1 0.2 0 0.2-0.1 0.1-0.1 0.3-0.2 0.1-0.2 0.1-0.1 0-0.4 0-0.3 0-0.1-0.4-0.5z m-33.4 151.1l0.1-0.1 0.2 0.2 0.3 0.5 0.4 1.3 0 0.4-0.2 0.4-0.4 0.1-0.5-0.2-0.2-0.3-0.4-0.3-1.3-0.5-0.5-0.3-0.3-0.3-0.9-1.3-0.2-0.5 0-0.4 0.4-0.1 0.7 0.4 2.1 0.5 0.4 0.7 0.1 0.2 0.1 0 0.1-0.1 0-0.3z m-3.7-3l-0.3 0.3-0.4-0.1-0.2-0.3 0.2-0.5 1.7 0.1 0.7 0.2 0.7 0.5 0.1 0.4-0.2 0.3-0.3 0.1-0.4 0-0.4-0.1-1.2-0.9z m-1.4 36.3l0.5 0.1 0.7 0 0.6 0.6 0.4 0.8 0.4 0.7-0.2 0.8-0.6 0.8-0.4 0.8-0.5 0.6-0.5 0-0.5-0.2 0.1-0.8-0.2-0.5-0.6 0.4-0.6 0-0.3-0.4 0.3-0.5 0.5-0.8 0.1-1 0.4-1.4 0.4 0z m0.7-6.6l0.4 0 0.6 0.2 0.7 0.2 0.5 0.8-0.1 1.2 0 1.5 0.1 1.5-0.1 0.4-0.2-0.6-0.3-0.7-0.5-0.6-0.9-1.5-0.5-1 0.3-1.4z" id="ARB" name="Buenos Aires">
  </path>
  <path d="M609.8 349l-0.1 0.3-0.5 0.5-0.7 0.1-0.6 0.6-0.8 1.5-2-1.7-0.4-1.4 0.5-2.2 1.3-1.1 0.5 0.3 0.4 0.2 0.4 0.3 0.7 0.5 0.3 0.3 0.4 0.6 0.3 0.6 0.3 0.6z" id="ARC" name="Ciudad de Buenos Aires">
  </path>
  <path d="M581.9 242.9l0.2 1.1 0.2 0.4 0.5 1.1 0.1 0.4 0 0.4-0.2 0.9 0 1.4 0 0.4-0.4 1.2-0.1 0.4-0.1 1.4-0.2 0.5-1.2 2.2-1.1 1.5-0.4 0.8-1 1.3-0.8 1.5-1.2 1.8-1.3 2.4-0.3 0.3-0.8 0.7-0.2 0.3-0.6 2.1-0.1 0-0.1 0.3-0.9 1.1-0.4 0.7-0.1 0.2-0.1 0-0.3 0.1-0.2 0.1-0.1 0.1-0.2 0.2-0.2 0.4-0.1 0-0.3 0.2-0.3 0.3-0.1 0.2-0.3 0.4-0.5 0.6-1.1 1.6-0.6 0.7-0.7 0.6-0.4 0.2-0.4 0.2-0.4 0.1-0.4 0.1-1.5 0-0.4 0-0.4 0-0.6 0.2-0.1 0-0.2 0.2-0.1 0.2 0 0.2 0 0.2 0.1 0.2-0.1 0 0 0.1 0 0.3 0 0.4-0.3 0.7-0.1 0.8 0 0.2-0.2 0.4-0.6 0.8-0.2 0.5 0 0.6 0.1 0.6 0.2 0.6 0.6 0.8 0.2 0.5 0.1 0.5-0.1 0.5-0.7 1.2-0.1 0.4-0.1 0.5 0.2 1.4 0 0.6-0.1 0.4-0.4 1.5-0.1 0.5-0.1 0.5 0.2 1.5-0.1 0.5-0.1 0.5-0.6 1.6-0.1 0.5 0 0.4 0.2 0.4 0.7 1.2 0.3 0.4 0.1 0.5 0.2 2.2 0.1 1 0.3 0.9 1.1 2.3 0.4 0.6 0.1 0 0.2 0.2 0.1 0.1 0.1 0.2 0.5 1.7 0.1 0.2 1.2 1.5 1.3 0.9 0.3 0.2 0.3 0.1 0.2 0.1 0.2 0.2 0.4 0.4 0.2 0.5 0.1 0.1 0.5 0.5 0.6 0.3 0.4 0.5 0 0.1 0 0.3 0 0.4-0.1 0.1-0.1 0.2-0.3 0.2-0.1 0.1-0.2 0.1-0.2 0-0.2 0.1-0.1 0 0 0.1-0.1 0.2-0.1 0.3 0 0.2 0 0.2 0 0.2 0.1 0.2 0 0.2-0.1 0.1-0.1 0.2-0.2 0.3-0.9 0.6-0.1 0.2 0 0.1-0.2 1.2-0.1 0.6-0.1 0.3-0.8 1.5-0.1 0.3-0.5 0.3-0.5 0.1-0.1 0-0.3 0.1-0.5-0.1-0.4-0.1-0.1-0.1-0.2-0.1-0.6-0.6-0.8-0.6-0.1 0-0.1-0.1-2 0-0.3-0.1-0.6-0.4-0.2 0-0.3-0.1-0.4 0-0.3 0.1-0.5 0.1-0.1 0.1-0.1 0-0.2 0.2-0.2 0.2-0.2 0.6 0.2 0.8-0.7 1.1-3.7 4.2-5 5.6-6.8 7.7-1.1 0-10.9 0-11.7 0.1 8.4-13.7 6.3-10.3 4.7-7.6 0.5-0.8 0.3 0.1 0.2 0 0.3-0.1 0.1 0 0.1-0.1 0.3-0.1 0.3-0.3 0.7-0.8 0.3-0.6 0.1-0.1 0.1-0.5 0-0.6 0-1.5 0.1-0.5 0.3-0.6 0.1-0.4 0-0.2 0-0.2 0-0.2-0.2-0.3 0-0.2-0.1-0.1-0.6-0.4-0.1-0.1 0-0.2-0.4-0.8-0.6-1.1 0-0.1-0.1-0.1-0.2 0-0.1-0.1-0.6-0.1-0.2 0-0.1-0.1 0-0.2 0-0.1 0.3-0.4 0.1-0.1 0.1-0.2 0-0.2 0-0.1 0.1-0.2 0-0.3-0.1-0.2-0.1-0.1-0.2-0.2-0.1-0.1-0.1-0.2-0.1-0.1 0-0.8-0.2-0.8-0.1-0.5-0.1-0.2-0.3-0.3-0.2-0.3-1.5-1.1-0.5-0.8-0.1-0.4-0.6-2.1-0.1-0.2-0.1-0.1-0.4-0.3-0.6-0.3-0.2-0.1-0.6-0.8-0.5-0.4-0.5-0.6 0-2 0.1-0.6 0.1-0.4 0.2-0.4 0.3-0.7 0-0.2 0-0.2-0.1-0.1-0.2-0.2-0.3-0.5 0-0.1 0-0.1-0.1-0.1-0.1-1.5 0-0.3 0.1-1.1 0-0.3 0-0.2 0-0.1-0.1-0.1-0.3-0.6 0-0.1 0-0.3 0.3-0.3 0.8-0.8 0.9-0.8 0.4-0.8 5.3-19.9 0.2-1.4-1-1.4-4.6-5.1-0.1-0.4-0.1-0.6 1-6.3 1.8-11.7 1-6.3 1.8-11.5 2-13.2 1.2-8.4 20 0.1 14.6-0.1 9.2 0 15.1 0-0.2 1-0.4 0.7-0.5 0.5-0.6 0.5-0.7 0.1-0.8 0-0.4 0.1-0.4 0.2-0.3 0.2-0.2 0.4-0.1 0.4 0 0.4 0 0.5 0.1 0.8 0 0.5-0.2 1.3 0.1 0.4 0.4 1.1 0.1 0.4-0.5 3 0.1 1.8-0.1 0.5-0.1 0.4-0.1 0.4-0.8 1.6-0.1 0.4 0 0.4 0 0.2 0 0.2 0 0.2-0.2 0.8 0 0.6-0.2 0.5-0.4 0.8-0.2 0.4-0.1 0 0 1.6-0.1 0.8-0.3 0.6-0.3 0.3-0.9 0.5-0.6 0.5-0.6 0.5-0.6 0.5-2 0.7-0.6 0.4-0.6 0.4-0.4 0.6-0.3 0.6-0.7 2.9-0.2 0.7 0 4.9-0.8 3.2-0.1 0.4-0.6 1.3-0.2 0.6 0.2 0.8 0.7 1.2 0.6 2 0.1 0.9 0 0.4-0.1 0.4-0.6 1.2-0.2 0.4-0.1 0.4 0 0.9-0.1 0.5-0.4 1.2 0 0.4 0.1 1.1z" id="ARS" name="Santa Fe">
  </path>
  <path d="M449.5 146.8l6.1 1 0.7 0.1 0.2-0.1 0.1-0.1 0.1-0.1 0.1-0.1 0.1-0.2 0-0.1 0-0.1 0-0.2 0-0.8 0-0.3 0.1-0.5 0.2-0.4 0-0.5 0-0.9 0-0.3 0.1-0.3 0-0.1 0.1-0.1 0.2-0.1 0.1 0 0.1 0.1 0.5 0.2 0.1 0.1 1 0.3 0.5-0.1 0.3 0 2 0.5 0.3 0 0.1 0 0.1-0.1 1.1-0.6 0.6-0.2 0.2-0.1 0.2 0 0.1 0.1 0.1 0 0.1 0.1 0.3 0.6 0.1 0.6 0.2 0.3 0.1 0.3 0.3 0.2 4 1.6 0.3-0.1 0.2 0 0.4 0.1 0.4 0.3 0.7 0.3 0.4 0.1 0.3 0.1 0.1-0.1 0.3 0 0.2-0.1 0.1 0 0.4-0.3 0.4-0.4 0.2-0.1 1-0.4 0.7-0.1 1.1 0.3 0.3 0 4.4-0.1 0.1 1.6-0.1 0.7-0.7 2.5-0.1 0.2 0 0.2 0.4 2.4 0.1 1.7 0 0.9 0 0.4-0.1 0.1-1.3-0.2-0.3 0.1-0.1 0.2-0.6 2.2-0.1 0.2-0.1 0.2-0.1 0-0.3 0-0.3 0-0.1 0.1-0.2 0-0.1 0.4-0.3 1-0.7 2.9-0.3 0.6-0.1 0.1-0.2 0-0.1 0.2-0.2 0.2-0.1 0.2-0.1 0.2-0.3 1.3-0.2 1-0.6 1.7-0.4 0.5-0.1 0.1-0.5 1.4-0.1 0.2-0.1 0.1-0.5 0.1-0.2 0.1-0.3 0.3-1 1.2-0.3 0.3-1.3 1.5 0.1 0.1 0.3 0.2 0.4 0.1 0.3 0 0.4 0.2 0.4 0.3 0.1 0 0 0.2-0.1 0.2-0.2 0.4-0.1 0.2-0.1 0.1-0.2 0.1-0.1 0.1-0.1 0-0.1 0-0.2 0-0.4 0-0.1 0.1-0.2 0-0.2 0.7 0 0.5 0.9 2.1 0.5 1.2 0.1 0.3-0.1 0-0.3 0-0.1 0.1-0.2 0.2-0.6 1.9-0.2 0.4-0.2 0.2-0.2 0.1-0.3 0-0.2 0-0.3-0.1-0.2 0-0.1 0-0.3 0.1-0.2 0.2-0.6 0.3-0.4 0-0.3 0-0.3-0.1-0.4-0.2-0.4-0.3-0.4-0.4-0.3-0.2-0.3-0.2-0.2 0-0.2 0-1.7 1.1-0.6 0.7-0.7 0.5-0.2 0.1-0.5 0.8-0.5 1.1-0.1 0.2-0.3-0.1-1.7-2.2-0.2-0.3-0.3-0.9-0.2-1.2-0.2-0.7-0.1-0.1-0.2-0.2-0.9-0.5-0.4 0-0.2 0.1-0.2 0.1-0.5 0.2-0.4-0.3-0.1-0.1-0.2-0.2-0.1-0.3 0-0.5-0.3-0.9-0.1-0.3-0.1-0.1-0.3-0.2-0.2-0.1-0.3-0.3-0.1-0.1-0.1-0.2-0.1-0.2-0.1-1-0.3-0.6-0.7-3.4 0.2-0.6 0-0.1-0.1-0.2-0.1 0-0.1 0-0.6-0.1-1.5-0.9-0.3-0.1-0.7-0.1-0.4-0.1-0.4-0.1-0.2-0.2-0.1-0.1 0-0.1 0.1-0.1 0.5-0.8 0.4-0.9 0.6-0.7 0.5-0.4 0.4-0.5 0.1-0.2 0.1-0.1 0.1-0.2 0.1-0.3 0.4-0.7 0.5-0.7 0.7-0.7 1.4-1.5 0.6-0.9 0.2-0.6 0.1-0.3 0-0.3 0-1.3 0-0.3 0.3-1.4 0-0.2 0-0.3 0-0.2 0-0.2-0.1-0.1 0-0.1-0.1-0.2-0.1 0-0.1-0.1-0.9-0.5-1.4-1.1-0.7-0.7-0.3-0.2-0.5-0.2-0.5-0.2-0.4 0-0.5-0.2-0.3-0.2-0.3-0.5-0.1-0.3 0-0.2 0-0.4 0.4-1.1 0.5-1 0.1-0.6 0.1-0.5 0-0.4 0.1-0.5 0.1-0.3 0.3-0.3 0.2-0.3 0.2-0.1 0.1-0.5z" id="ART" name="Tucumán">
  </path>
  <path d="M482 146l0.1-0.8 0.1-0.1 0.7-1.5 0.2-0.4 0-0.2 0-0.8 0.1-0.2 0.1-0.4 4.4-9.8 0.4-0.5 0.8 0.1 4 1.3 0.7 0.2 10.9 0.2 34.1 0 0.6 1.9 0.3 9.3 0 2.6 0 12.4 0 23.7 0 4.4-1.2 8.4-2 13.2-1.8 11.5-1 6.3-1.8 11.7-3.2-8.4-1-0.6-3.4-0.2-7 0.1-11.8 0-0.5-0.1-0.1-0.2-0.1-0.1 0-0.4 0-0.2 0-0.1-0.2-0.1-0.2-0.1-0.7-0.1-0.2 0-0.1-0.2 0-0.1 0.1-0.7 0-0.1 0-0.1 0-0.1-0.1-0.1-0.1-0.1-0.2 0-0.8 0.2-0.2-0.1-1.5-0.4-0.3-0.1-2.4 0.4-0.4 0-1.2-0.1-0.2 0-0.2-0.1-0.2-0.2-0.3-0.2-0.1-0.1-0.2-0.1-1.3-0.2-0.1-0.1-0.2-0.2-0.2-0.3-0.1-0.1-1.5-0.9-0.3-0.2-0.1-0.2 0-0.3 0.1-0.6-0.1-0.3 0-0.1-0.2-0.1-4.1-1-0.8 0-2.3 0.5-3.9 1.1-6 1.5-0.5-0.6-0.2-0.5 0-0.1-0.2-0.5-1.4-2.4-0.9-2.2-0.9-6.9 0.1-2-0.4-4.6 0-0.4-0.1-0.1-0.1-0.1-0.4-0.4-0.8-0.5-0.2 0-0.1-0.1 0-0.1-0.1-0.1 0-0.8 0-0.2 0.1-0.1 0.4-0.2 0.1-0.1 0.2-0.5 0.3-0.5 0.5-0.5 0.3-0.4 0.2-0.6 0.2-1.3-0.2-3.5-1.8-8.6 0.2-0.2 0.3-0.1 0.1 0 0.2 0 0.3 0.1 0.2 0 0.3 0 0.2-0.1 0.2-0.2 0.2-0.4 0.6-1.9 0.2-0.2 0.1-0.1 0.3 0 0.1 0-0.1-0.3-0.5-1.2-0.9-2.1 0-0.5 0.2-0.7 0.2 0 0.1-0.1 0.4 0 0.2 0 0.1 0 0.1 0 0.1-0.1 0.2-0.1 0.1-0.1 0.1-0.2 0.2-0.4 0.1-0.2 0-0.2-0.1 0-0.4-0.3-0.4-0.2-0.3 0-0.4-0.1-0.3-0.2-0.1-0.1 1.3-1.5 0.3-0.3 1-1.2 0.3-0.3 0.2-0.1 0.5-0.1 0.1-0.1 0.1-0.2 0.5-1.4 0.1-0.1 0.4-0.5 0.6-1.7 0.2-1 0.3-1.3 0.1-0.2 0.1-0.2 0.2-0.2 0.1-0.2 0.2 0 0.1-0.1 0.3-0.6 0.7-2.9 0.3-1 0.1-0.4 0.2 0 0.1-0.1 0.3 0 0.3 0 0.1 0 0.1-0.2 0.1-0.2 0.6-2.2 0.1-0.2 0.3-0.1 1.3 0.2 0.1-0.1 0-0.4 0-0.9-0.1-1.7-0.4-2.4 0-0.2 0.1-0.2 0.7-2.5 0.1-0.7-0.1-1.6z" id="ARG" name="Santiago del Estero">
  </path>
  <path d="M435.5 280.1l1.4 0.3 0.5 0.2 0.6 0.3 0.2 0.1 0.1 0 0.2 0 0.4 0 0.4-0.2 0.2-0.1 0.1 0.1 0.2 0.1 0.5 0.3 0.1 0 1.1-0.2 0.2 0 0.2 0.1 0.3 0.1 0.5 0.3 0.2 0 0.2 0 0.7-0.2 0.3 0 1 0.1 1-0.1 1.1-0.4 0.8-0.5 0.5-0.2 1-0.2 0.8 0 1 0.2 0.2 0 0.1 0.1 0.3 0.2 0.2 0.1 0.1 0 0.4 0.1 1 0 2-0.4 1.8 0 0.7 0.2 1 0.5 5.8 3.6 0.6 0.7 0.6 0.5 0.1 0.2 0.1 0.2 0.1 0.4 0 0.1 0 0.4 0 0.3 0 0.3 0.2 0.5 0.2 0.4 0.3 0.5 0 0.1 0.1 0.3 0 1 0 0.2 0 0.2 0.1 0.1 0.1 0.1 0.3 0.1 2.2-0.3 2.1-0.6 0.4-0.1 0.1 0 0.1 0 0.2 0.1 0.1 0.1 0.1 0 0 0.3 0.1 0.3 0 0.7 0 0.7-0.1 0.6 0 0.6 0 0.2 0.1 0.3 0.5 0.9 0.1 0.5 0.1 0.4 0.1 0.5 0.1 0.2 0 0.2-0.1 0.8-0.1 0.7-0.5 1.1-0.1 1-0.1 0.2-0.1 0.2-0.1 0.1-0.3 0.3-0.1 0.2 0 0.1 0 0.3 0 0.4 0 0.1-0.1 0.2-0.3 0.5 0 0.2-0.1 0.2 0 0.9 0 0.2-0.1 0.2-0.8 1.5 0 0.2-0.1 0.2 0.1 0.3 0.1 0.4 0 0.2-0.1 0.3-0.5 1.1-0.1 0.3 0 0.4 0.2 0.5 0 0.2 0 0.1-0.1 0.2-0.2 0.1-0.1 0.1-0.5 0.1-0.2 0-0.1 0.1 0 0.1-0.1 0.1-0.6 1.1-0.1 0.3-0.1 0.2 1 18.8 0 26 0 0.1-0.1 21.4 0 4-0.1 0-0.8 0-18.5 0-0.8 0-11.4 0-0.2-0.1-0.1-0.8 0-0.4 0.3-1.2 0.1-1.9 0.9-4 0.2-2.6 0.7-1.4 0.1-0.5 0-2.3 0.3-1.6 0-0.4-0.3-1.6 0.1-0.1 0.1-0.2 0.1-0.3 0-0.3-0.1-0.2-0.1-0.2-0.2-0.3 0.4-1.5 0-0.4-0.1-0.4-0.4-0.8-0.1-0.3-0.1-0.4-0.3-1 0-0.3 0.2-1.3-0.1-0.5-0.5-1.9-2.5-4.9-0.9-1.1-0.2-0.4-0.1-0.5-0.5-1.6-0.1-2.2-0.2-0.5-0.3-0.2-0.2-0.4 0.3-0.5-0.3-0.5 0-1.9-0.2-0.6 0-0.3 0.3-0.5 0.1-0.4 0.1-0.1 0.1 0 0.3 0.2 0.1 0 0.3-0.4 0.1-0.5 0.1-1.3 0.1-0.8 0-0.4-0.4-0.6-0.1-0.8-0.2-0.4-0.3-0.2-0.3-0.2-0.3-0.4-0.2-1.1-0.2-0.5-0.4-0.3-0.3-0.3-0.7-0.5-0.4-0.3-0.2-0.3 0-0.5-0.5-1.7-0.5-0.8-0.3-1.1-0.1-0.3-0.3-0.8-0.1-0.3-0.4-0.4-2-3.4-0.2-0.6 0-0.5 0-1.1 0-0.4-0.5-1.2 0-0.9-0.2-0.2-0.1-0.7 0.1-1.9-0.1-2.3-0.2-0.5-0.1-0.2 0-0.3 0.1-0.5 0-0.3-0.4-1-0.2-0.7 0.1-0.3 0.4-0.3 0-0.5-0.3-1.1 0.1-0.2 0.1-0.7 0.4-0.7-0.1-0.3-0.2-0.3-0.1-0.4-0.1-0.4-0.2-0.2-0.2-0.2-0.2-0.3-0.2-0.2-0.1-0.4-0.4-2-0.1-0.3 0-0.4-0.3-0.7-0.1-0.7-0.1-0.2-0.1-0.2-0.1-0.2-0.1-0.1 0-0.4 0-0.2-0.2-0.3-0.2-0.2-0.5-0.4-0.5-2.2-0.1-1.1 0-1.6 0-0.8 0-1.5 0-0.4-0.1-0.5 0.1-0.2 0-0.3 0.3-1.1 0.1-0.1 0-0.2-0.1-0.3 0-0.2-0.1-0.1 0-0.1 0.1-0.4-0.1-0.2-0.1-0.6 0-0.3 0-0.1 0-0.2 0.1-0.2 0.1-0.2 0.2-0.2 0.5-0.3 0.9 0.2 0.6 0.2 0.3 0 0.5 0.1 1.7-0.2 0.7-0.2 0.2 0 0.3 0 0.4 0.1 0.3 0.1 0.2 0.1 0.2 0.3 0.1 0 0.1 0.1 0.2 0 0.7 0.2 5.3-0.3z" id="ARD" name="San Luis">
  </path>
  <path d="M404.1 423.4l0-18.9-0.2-14.3-0.6-3.1-0.1-0.3-0.1-0.4 0.1-1.1 0.2-1.7 0.3-0.3 0.4-0.2 23 0 1.6 0 9.2 0 11.4 0 0.8 0 18.5 0 0.8 0 0.1 0 0-4 0.1-21.4 12.4 0 11 0 11.8 0 0 6.9 0 5.7-0.1 11.5 0 0.9 0 10.7 0 5.8 0 5.8 0 11.3 0.1 11.7-0.1 1.2 0.1 12.9 0 14.7-0.1 13.3-1.8-0.2-0.8-0.3-0.6-0.6-2.7-1.9-0.7-0.3-0.4-0.5-0.5-0.9-0.3-0.3-0.3-0.2-0.8-0.5-1.4-0.3-0.4-0.2-1.8-2.2-0.3-0.3-1-0.1-0.4-0.2-1.5-1-6.7-2.6-1.5 0-5.7-1.1-0.4 0.2-0.7-0.2-1.5 0.2-0.5-0.4-0.2 0-2.8 0-3.1 0.6-1-0.1-0.9 0.4-0.3 0-0.3-0.1-0.8-0.6-1.8-0.7-1.1-0.2-0.6 0-0.4 0.3-0.3 0.3-0.5 0.3-0.4 0.2-0.4 0-0.2-0.1-0.2-0.2-0.2-0.2-0.3-0.1-0.9 0-0.2 0-0.4-0.4-0.2-0.1-0.3-0.1-0.8-0.1-0.7-0.3-0.6-0.1-0.4-0.3-0.2 0-5.3-0.7-2.8 0.5-0.9 0-2.4-0.7-0.6 0-0.5-0.2-0.2-0.4-0.2-1.3-0.2-0.8-0.5-0.7-0.7-0.6-0.7-0.4-0.9-0.2-0.2-0.1-0.4-0.3-0.1-0.1-0.2-0.1-0.8-0.5-1-0.1-0.4-0.2-0.7-0.5-0.9-0.2-2.1-1.1-0.2 0-0.1-0.2-0.3-0.4-0.3-0.3-0.8-1.1-0.5-1.4 0-0.3 0-0.6-0.1-0.4-0.2-0.4-0.5-0.2-0.4 0-1.8 0.3-0.9 0.6-0.6 0.2-1.5-0.2-0.6 0.3-1.5 0.1-0.8-0.4-0.7-0.7-0.6-0.8-1.1-2.4-0.6-0.6-0.8-0.4-0.2 0-0.6 0.2-0.2 0-0.3-0.3-0.2 0-0.2-0.2-0.2-0.6-0.1-0.5-0.1-0.5 0.1-1.3 0.5-0.9 0.6-0.6 1.4-1 0.5-0.7 0.3-1 0-1.2-0.3-0.8-0.5-0.9-0.6-0.8-0.6-0.5-0.9-0.5-8.2-1.1z" id="ARL" name="La Pampa">
  </path>
  <path d="M463 238.1l4.5-1.2 1-0.6 1.8-1.9 2.2-2.5 0.2-0.4 0.1-0.5-0.6-5.5 0.2-0.8 1.4-0.5 6-1.5 3.9-1.1 2.3-0.5 0.8 0 4.1 1 0.2 0.1 0 0.1 0.1 0.3-0.1 0.6 0 0.3 0.1 0.2 0.3 0.2 1.5 0.9 0.1 0.1 0.2 0.3 0.2 0.2 0.1 0.1 1.3 0.2 0.2 0.1 0.1 0.1 0.3 0.2 0.2 0.2 0.2 0.1 0.2 0 1.2 0.1 0.4 0 2.4-0.4 0.3 0.1 1.5 0.4 0.2 0.1 0.8-0.2 0.2 0 0.1 0.1 0.1 0.1 0 0.1 0 0.1 0 0.1-0.1 0.7 0 0.1 0.1 0.2 0.2 0 0.7 0.1 0.2 0.1 0.2 0.1 0 0.1 0 0.2 0 0.4 0.1 0.1 0.1 0.2 0.5 0.1 11.8 0 7-0.1 3.4 0.2 1 0.6 3.2 8.4-1 6.3 0.1 0.6 0.1 0.4 4.6 5.1 1 1.4-0.2 1.4-5.3 19.9-0.4 0.8-0.9 0.8-0.8 0.8-0.3 0.3 0 0.3 0 0.1 0.3 0.6 0.1 0.1 0 0.1 0 0.2 0 0.3-0.1 1.1 0 0.3 0.1 1.5 0.1 0.1 0 0.1 0 0.1 0.3 0.5 0.2 0.2 0.1 0.1 0 0.2 0 0.2-0.3 0.7-0.2 0.4-0.1 0.4-0.1 0.6 0 2 0.5 0.6 0.5 0.4 0.6 0.8 0.2 0.1 0.6 0.3 0.4 0.3 0.1 0.1 0.1 0.2 0.6 2.1 0.1 0.4 0.5 0.8 1.5 1.1 0.2 0.3 0.3 0.3 0.1 0.2 0.1 0.5 0.2 0.8 0 0.8 0.1 0.1 0.1 0.2 0.1 0.1 0.2 0.2 0.1 0.1 0.1 0.2 0 0.3-0.1 0.2 0 0.1 0 0.2-0.1 0.2-0.1 0.1-0.3 0.4 0 0.1 0 0.2 0.1 0.1 0.2 0 0.6 0.1 0.1 0.1 0.2 0 0.1 0.1 0 0.1 0.6 1.1 0.4 0.8 0 0.2 0.1 0.1 0.6 0.4 0.1 0.1 0 0.2 0.2 0.3 0 0.2 0 0.2 0 0.2-0.1 0.4-0.3 0.6-0.1 0.5 0 1.5 0 0.6-0.1 0.5-0.1 0.1-0.3 0.6-0.7 0.8-0.3 0.3-0.3 0.1-0.1 0.1-0.1 0-0.3 0.1-0.2 0-0.3-0.1-0.5 0.8-4.7 7.6-6.3 10.3-8.4 13.7-10.1-0.1-0.7 0.9-0.1 4.1-0.1 10.7-11.8 0-11 0-12.4 0 0-0.1 0-26-1-18.8 0.1-0.2 0.1-0.3 0.6-1.1 0.1-0.1 0-0.1 0.1-0.1 0.2 0 0.5-0.1 0.1-0.1 0.2-0.1 0.1-0.2 0-0.1 0-0.2-0.2-0.5 0-0.4 0.1-0.3 0.5-1.1 0.1-0.3 0-0.2-0.1-0.4-0.1-0.3 0.1-0.2 0-0.2 0.8-1.5 0.1-0.2 0-0.2 0-0.9 0.1-0.2 0-0.2 0.3-0.5 0.1-0.2 0-0.1 0-0.4 0-0.3 0-0.1 0.1-0.2 0.3-0.3 0.1-0.1 0.1-0.2 0.1-0.2 0.1-1 0.5-1.1 0.1-0.7 0.1-0.8 0-0.2-0.1-0.2-0.1-0.5-0.1-0.4-0.1-0.5-0.5-0.9-0.1-0.3 0-0.2 0-0.6 0.1-0.6 0-0.7 0-0.7-0.1-0.3 0-0.3-0.1 0-0.1-0.1-0.2-0.1-0.1 0-0.1 0-0.4 0.1-2.1 0.6-2.2 0.3-0.3-0.1-0.1-0.1-0.1-0.1 0-0.2 0-0.2 0-1-0.1-0.3 0-0.1-0.3-0.5-0.2-0.4-0.2-0.5 0-0.3 0-0.3 0-0.4 0-0.1-0.1-0.4-0.1-0.2-0.1-0.2-0.6-0.5-0.6-0.7-5.8-3.6-1-0.5-0.7-0.2-1.8 0 0-6.4-0.1-8.5 0-4.2 0.2-1.5 1.4-4.1 0.3-0.8 0.4-1.2 1.7-5.1 0-0.4 0.2-0.7 0.5-1.7 0.3-0.9 0.1-0.3 0.4-0.7 0.3-0.7 1.7-5z" id="ARX" name="Córdoba">
  </path>
 </g>
 <g id="points">
  <circle class="-53.388761971521205|-72.57718028312743" cx="314.4" cy="895.6" id="0">
  </circle>
  <circle class="-40.0827306949665|-62.62158638921582" cx="520.6" cy="490.5" id="1">
  </circle>
  <circle class="-23.450191599273108|-54.65711127408653" cx="685.6" cy="82.8" id="2">
  </circle>
 </g>
 <g id="label_points">
  <circle class="Entre Ríos" cx="588.8" cy="287.9" id="ARE">
  </circle>
  <circle class="Salta" cx="463.3" cy="124.5" id="ARA">
  </circle>
  <circle class="Jujuy" cx="452.1" cy="68.9" id="ARY">
  </circle>
  <circle class="Formosa" cx="581.2" cy="120.3" id="ARP">
  </circle>
  <circle class="Misiones" cx="693.4" cy="158.5" id="ARN">
  </circle>
  <circle class="Chaco" cx="563.5" cy="160.1" id="ARH">
  </circle>
  <circle class="Corrientes" cx="619.8" cy="204" id="ARW">
  </circle>
  <circle class="Catamarca" cx="423.8" cy="168.7" id="ARK">
  </circle>
  <circle class="La Rioja" cx="429.4" cy="223.5" id="ARF">
  </circle>
  <circle class="San Juan" cx="391.6" cy="254.2" id="ARJ">
  </circle>
  <circle class="Mendoza" cx="401.6" cy="345.1" id="ARM">
  </circle>
  <circle class="Neuquén" cx="374.8" cy="447.5" id="ARQ">
  </circle>
  <circle class="Chubut" cx="396.6" cy="599.8" id="ARU">
  </circle>
  <circle class="Río Negro" cx="431.5" cy="494.6" id="ARR">
  </circle>
  <circle class="Santa Cruz" cx="361.1" cy="736.4" id="ARZ">
  </circle>
  <circle class="Tierra del Fuego" cx="408.1" cy="926.1" id="ARV">
  </circle>
  <circle class="Buenos Aires" cx="568.1" cy="394" id="ARB">
  </circle>
  <circle class="Ciudad de Buenos Aires" cx="607" cy="348.5" id="ARC">
  </circle>
  <circle class="Santa Fe" cx="558.1" cy="240.4" id="ARS">
  </circle>
  <circle class="Tucumán" cx="465.2" cy="160.5" id="ART">
  </circle>
  <circle class="Santiago del Estero" cx="506.7" cy="180.8" id="ARG">
  </circle>
  <circle class="San Luis" cx="450.5" cy="322" id="ARD">
  </circle>
  <circle class="La Pampa" cx="461.2" cy="419.1" id="ARL">
  </circle>
  <circle class="Córdoba" cx="500.2" cy="279.7" id="ARX">
  </circle>
 </g>
</svg>